<svg xmlns="http://www.w3.org/2000/svg" xmlns:xlink="http://www.w3.org/1999/xlink" width="50" zoomAndPan="magnify" viewBox="0 0 37.5 37.499999" height="50" preserveAspectRatio="xMidYMid meet" version="1.0"><defs><clipPath id="924d0f9690"><path d="M 2.558594 5 L 34.777344 5 L 34.777344 33.457031 L 2.558594 33.457031 Z M 2.558594 5 " clip-rule="nonzero"/></clipPath></defs><g clip-path="url(#924d0f9690)"><path fill="#000000" d="M 22.675781 33.433594 L 30.109375 29.785156 L 31.269531 24.6875 C 31.28125 24.683594 31.296875 24.671875 31.308594 24.664062 C 32.355469 24.011719 32.828125 23.25 33.402344 21.25 L 33.484375 20.953125 C 33.96875 19.28125 34.058594 19.003906 34.410156 18.816406 L 34.519531 18.757812 L 34.773438 16.941406 L 34.773438 16.917969 C 34.78125 16.730469 34.695312 16.515625 34.480469 16.449219 C 34.460938 16.445312 33.371094 16.097656 31.085938 15.957031 L 30.441406 13.683594 L 32.0625 12.199219 C 33.53125 10.632812 33.445312 8.179688 31.875 6.714844 L 31.566406 6.429688 C 31.1875 6.078125 30.757812 5.8125 30.273438 5.628906 C 29.789062 5.449219 29.289062 5.367188 28.769531 5.386719 C 28.253906 5.402344 27.757812 5.519531 27.289062 5.730469 C 26.816406 5.945312 26.40625 6.242188 26.050781 6.617188 L 24.660156 8.105469 L 18.664062 6.835938 L 12.328125 8.097656 L 10.945312 6.621094 C 9.46875 5.046875 6.996094 4.957031 5.421875 6.425781 L 5.117188 6.710938 C 3.542969 8.175781 3.457031 10.625 4.925781 12.199219 L 6.546875 13.6875 L 5.90625 15.980469 C 3.828125 16.132812 2.851562 16.453125 2.832031 16.453125 C 2.617188 16.511719 2.527344 16.734375 2.539062 16.921875 L 2.800781 18.753906 L 2.910156 18.8125 C 3.261719 19 3.351562 19.285156 3.832031 20.957031 L 3.917969 21.246094 C 4.4375 23.0625 4.875 23.859375 5.746094 24.480469 L 7.214844 29.785156 L 14.644531 33.433594 Z M 26.753906 24.519531 L 26.714844 24.519531 C 24.886719 24.519531 23.75 23.882812 23.339844 23.605469 C 22.695312 23.171875 21.894531 22.214844 21.597656 21.507812 C 21.289062 20.796875 21.152344 19.460938 21.328125 18.910156 C 21.5 18.378906 22.316406 18.042969 22.914062 17.835938 C 24.132812 17.414062 26.253906 17.226562 26.265625 17.226562 C 26.851562 17.195312 27.441406 17.175781 28.027344 17.171875 C 28.542969 17.171875 29.011719 17.1875 29.421875 17.222656 C 30.023438 17.273438 30.507812 17.351562 30.890625 17.464844 C 31.441406 17.632812 31.695312 17.851562 31.867188 18.054688 C 32.066406 18.28125 32.359375 18.960938 32.082031 20.992188 C 31.964844 21.816406 31.730469 22.464844 31.367188 22.976562 C 31.175781 23.242188 30.957031 23.460938 30.703125 23.644531 C 30.433594 23.832031 30.105469 23.992188 29.71875 24.121094 C 28.964844 24.382812 27.96875 24.515625 26.761719 24.523438 Z M 9.453125 10.535156 L 18.65625 8.519531 L 27.535156 10.535156 L 29.3125 15.90625 L 29.019531 15.90625 L 28.472656 15.910156 C 27.164062 15.929688 25.851562 16.039062 24.550781 16.222656 C 23.894531 16.3125 23.238281 16.421875 22.585938 16.558594 C 21.988281 16.6875 21.511719 16.808594 21.089844 16.910156 C 20.152344 17.140625 19.535156 17.296875 18.671875 17.296875 C 17.800781 17.296875 17.179688 17.148438 16.246094 16.910156 L 14.742188 16.558594 C 14.007812 16.410156 13.269531 16.285156 12.523438 16.1875 C 11.191406 16.011719 9.859375 15.914062 8.523438 15.910156 L 8.300781 15.910156 L 7.683594 15.914062 Z M 9.257812 17.171875 C 9.847656 17.175781 10.4375 17.195312 11.023438 17.222656 C 11.042969 17.222656 13.164062 17.410156 14.386719 17.832031 C 14.984375 18.039062 15.804688 18.375 15.972656 18.910156 C 16.148438 19.453125 16.011719 20.785156 15.707031 21.507812 C 15.40625 22.210938 14.613281 23.171875 13.96875 23.605469 C 13.566406 23.875 12.421875 24.519531 10.59375 24.519531 L 10.542969 24.519531 C 9.152344 24.511719 8.039062 24.332031 7.234375 23.992188 C 7.007812 23.898438 6.792969 23.785156 6.589844 23.644531 C 6.207031 23.371094 5.902344 23.007812 5.671875 22.554688 C 5.449219 22.121094 5.300781 21.609375 5.21875 21 C 4.9375 18.964844 5.230469 18.289062 5.433594 18.050781 C 5.554688 17.910156 5.746094 17.726562 6.101562 17.578125 C 6.453125 17.429688 6.933594 17.320312 7.558594 17.253906 C 8.035156 17.203125 8.605469 17.183594 9.257812 17.183594 Z M 15.015625 32.097656 L 8.277344 28.796875 L 7.378906 25.191406 C 8.25 25.414062 9.335938 25.542969 10.4375 25.542969 C 10.917969 25.546875 11.402344 25.515625 11.878906 25.457031 C 14.507812 25.148438 15.820312 23.507812 16.0625 23.179688 C 16.582031 22.460938 17.171875 21.171875 17.679688 20.023438 C 17.863281 19.617188 18.558594 19.597656 18.65625 19.597656 L 18.726562 19.597656 C 18.929688 19.609375 19.46875 19.675781 19.625 20.023438 C 20.132812 21.179688 20.726562 22.464844 21.246094 23.179688 C 21.480469 23.503906 22.792969 25.148438 25.425781 25.457031 C 25.882812 25.511719 26.371094 25.542969 26.871094 25.542969 C 27.828125 25.542969 28.785156 25.445312 29.589844 25.269531 L 28.707031 28.796875 L 22.292969 32.097656 Z M 19.007812 28.265625 C 19.878906 28.1875 22.019531 27.855469 21.832031 26.5625 C 21.761719 26.144531 21.449219 25.234375 18.652344 25.828125 C 15.855469 25.230469 15.535156 26.144531 15.472656 26.5625 C 15.28125 27.855469 17.414062 28.1875 18.292969 28.265625 L 18.292969 29.460938 L 15.488281 29.460938 L 15.984375 30.394531 L 21.324219 30.394531 L 21.816406 29.460938 L 19.015625 29.460938 L 19.015625 28.265625 Z M 19.007812 28.265625 " fill-opacity="1" fill-rule="nonzero"/></g></svg>