<svg xmlns="http://www.w3.org/2000/svg" xmlns:xlink="http://www.w3.org/1999/xlink" width="1200" zoomAndPan="magnify" viewBox="0 0 900 899.99999" height="1200" preserveAspectRatio="xMidYMid meet" version="1.0"><defs><clipPath id="c8f7369d3a"><path d="M 9 92 L 881.609375 92 L 881.609375 796.5 L 9 796.5 Z M 9 92 " clip-rule="nonzero"/></clipPath></defs><g clip-path="url(#c8f7369d3a)"><path fill="#e6e1e5" d="M 279.367188 782.632812 C 294.535156 793.675781 315.335938 796.238281 333.628906 796.25 C 359.414062 796.265625 385.195312 796.25 410.980469 796.25 C 419.484375 796.25 427.34375 792.167969 431.351562 784.441406 C 438.03125 771.566406 430.003906 758.699219 419.734375 751.144531 C 412.179688 745.589844 402.828125 741.769531 393.488281 740.789062 C 390.601562 740.484375 385.257812 740.242188 379.085938 739.917969 C 390.136719 728.167969 398.597656 715.058594 404.648438 701.105469 L 413.355469 697.089844 C 427.289062 690.667969 440.933594 683.203125 454.003906 674.953125 C 454.152344 676.277344 454.304688 677.597656 454.449219 678.925781 C 455.964844 692.601562 457.132812 706.117188 457.421875 719.886719 C 457.648438 730.390625 460.519531 742.453125 467.453125 750.589844 C 470.71875 771.25 481.15625 794.554688 504.824219 794.554688 L 537.433594 794.554688 L 537.449219 794.515625 C 538.113281 794.546875 538.777344 794.554688 539.441406 794.554688 L 564.070312 794.554688 C 574.414062 794.554688 583.945312 789.449219 586.632812 778.558594 C 588.59375 770.632812 585.652344 762.765625 579.660156 757.503906 C 577.878906 755.9375 575.894531 754.632812 573.832031 753.472656 C 570.5625 751.632812 567.023438 750.070312 563.53125 748.691406 C 560.019531 747.304688 556.324219 746 552.660156 745.050781 C 547.070312 742.558594 540.363281 733.203125 539.308594 727.273438 C 533.871094 696.839844 541.261719 663.414062 552.554688 635.191406 C 557.855469 621.9375 563.367188 608.746094 569.632812 595.90625 C 587.628906 559.007812 610.328125 530.199219 639.308594 501.226562 C 662.246094 478.296875 681.835938 452.4375 694.234375 422.296875 C 703.398438 400.015625 707.453125 378.1875 709.984375 354.398438 C 710.570312 348.859375 712.070312 337.355469 716.441406 333.21875 C 723.945312 326.117188 753.289062 328.859375 762.410156 329.703125 C 786.085938 331.886719 811.25 329.722656 831.089844 315.402344 C 842.621094 307.074219 849.761719 296.804688 855.824219 284.792969 C 859.832031 282.300781 863.484375 279.136719 866.394531 275.835938 C 877.960938 262.722656 881.585938 244.863281 881.191406 227.820312 C 881.121094 224.660156 880.851562 221.507812 880.386719 218.378906 C 872.515625 165.558594 815.710938 137.617188 768.988281 127.242188 C 747.398438 122.445312 726.191406 114.730469 704.519531 109.550781 C 677.761719 103.160156 650.984375 100 623.664062 103.839844 C 611.167969 94.945312 596.1875 90.273438 581.042969 94.375 C 562.257812 99.464844 553.417969 114.53125 552.894531 131.59375 C 536.390625 143.882812 521.113281 157.257812 506.40625 171.675781 C 493.714844 184.125 481.640625 197.160156 469.074219 209.726562 C 449.179688 229.621094 429.742188 245.746094 404.9375 259.367188 C 368.867188 279.171875 327.058594 291.207031 287.054688 299.925781 C 271.078125 303.40625 255.308594 307.839844 239.855469 313.167969 C 147.992188 344.832031 58.925781 411.703125 24.289062 505.265625 C -4.9375 584.222656 11.574219 663.492188 55.40625 733.460938 C 74.375 763.738281 112.089844 785.082031 145.453125 795.371094 L 148.328125 796.257812 L 250.125 796.257812 L 253.375 795.101562 C 261.261719 792.289062 271.402344 787.882812 279.355469 782.640625 Z M 72.328125 722.871094 C 86.046875 744.769531 115.914062 765.375 151.34375 776.304688 L 246.679688 776.304688 C 254.757812 773.421875 267.335938 767.753906 272.640625 762.71875 C 268.25 734.683594 282.367188 724.539062 282.367188 724.539062 C 270.328125 764.949219 297.398438 776.273438 333.636719 776.304688 C 359.417969 776.304688 385.199219 776.304688 410.980469 776.304688 C 419.773438 776.304688 406.585938 762.222656 391.394531 760.625 C 376.210938 759.027344 344.636719 760.226562 332.246094 751.039062 C 422.8125 700.925781 410.167969 583.949219 340.550781 520 C 340.550781 520 419.5625 572.066406 404.992188 678.976562 C 418.585938 672.710938 439.671875 661.71875 462.613281 645.019531 C 461.644531 608.710938 484.171875 574.929688 484.171875 574.929688 C 460.226562 634.144531 476.039062 656.8125 477.371094 719.457031 C 477.769531 738.234375 486.335938 739.921875 486.335938 739.921875 C 486.335938 739.921875 488.445312 774.605469 504.824219 774.605469 L 523.828125 774.605469 C 524.867188 771.953125 518.707031 770.027344 515.851562 767.273438 C 520.949219 769.925781 530.699219 774.605469 539.441406 774.605469 L 564.066406 774.605469 C 574.859375 774.605469 555.671875 766.355469 547.347656 764.277344 C 539.023438 762.199219 522.785156 748.257812 519.664062 730.777344 C 516.539062 713.300781 514.042969 677.71875 534.027344 627.78125 C 554.007812 577.84375 572.746094 539.558594 625.199219 487.121094 C 677.65625 434.6875 685.984375 391.40625 690.144531 352.289062 C 694.308594 313.171875 710.128906 304.851562 764.25 309.839844 C 818.375 314.835938 831.695312 289.867188 840.855469 269.890625 C 840.855469 269.890625 862.085938 264.484375 861.253906 228.273438 C 860.421875 192.070312 824.617188 160.023438 764.671875 146.707031 C 726.480469 138.222656 677.144531 115.390625 623.546875 124.023438 C 629.945312 132.058594 631.25 142.546875 631.25 142.546875 C 623.792969 127.640625 604.628906 108.644531 586.28125 113.625 C 573.492188 117.09375 570.972656 129.25 573.851562 141.8125 C 577.753906 157.324219 587.53125 180.003906 601.691406 188.742188 C 601.691406 188.742188 572.863281 178.621094 567.089844 145.921875 C 472.144531 215.511719 473.214844 279.773438 291.320312 319.410156 C 110.921875 358.722656 -49.894531 527.761719 72.332031 722.871094 Z M 72.328125 722.871094 " fill-opacity="1" fill-rule="evenodd"/></g></svg>