<svg xmlns="http://www.w3.org/2000/svg" xmlns:xlink="http://www.w3.org/1999/xlink" width="500" zoomAndPan="magnify" viewBox="0 0 375 374.999991" height="500" preserveAspectRatio="xMidYMid meet" version="1.0"><defs><clipPath id="317e28b7c5"><path d="M 26.050781 26.050781 L 349.300781 26.050781 L 349.300781 349.300781 L 26.050781 349.300781 Z M 26.050781 26.050781 " clip-rule="nonzero"/></clipPath></defs><rect x="-37.5" width="450" fill="#ffffff" y="-37.499999" height="449.999989" fill-opacity="1"/><rect x="-37.5" width="450" fill="#ffffff" y="-37.499999" height="449.999989" fill-opacity="1"/><rect x="-37.5" width="450" fill="#333333" y="-37.499999" height="449.999989" fill-opacity="1"/><g clip-path="url(#317e28b7c5)"><path fill="#ffffff" d="M 188.5 26.875 L 187.675781 26.050781 L 26.050781 187.675781 L 187.675781 349.300781 L 349.300781 187.675781 Z M 187.675781 346.101562 L 29.25 187.675781 L 187.675781 29.25 L 346.101562 187.675781 Z M 87.390625 148.09375 C 87.484375 148.183594 87.484375 148.273438 87.390625 148.367188 L 85.105469 150.285156 L 87.023438 148 C 87.117188 148 87.300781 148 87.390625 148.09375 Z M 91.777344 143.613281 C 91.960938 143.796875 92.054688 144.160156 91.777344 144.34375 C 91.046875 144.984375 90.316406 145.714844 89.585938 146.355469 C 89.402344 146.539062 89.21875 146.445312 89.035156 146.355469 C 88.945312 146.171875 88.945312 145.988281 89.035156 145.804688 C 89.675781 145.074219 90.40625 144.34375 91.046875 143.613281 C 91.230469 143.429688 91.597656 143.429688 91.777344 143.613281 Z M 96.167969 139.222656 C 96.441406 139.5 96.53125 140.046875 96.167969 140.320312 L 93.972656 142.332031 C 93.699219 142.605469 93.242188 142.605469 93.058594 142.332031 C 92.785156 142.058594 92.785156 141.691406 93.058594 141.417969 L 95.070312 139.222656 C 95.34375 138.949219 95.894531 138.859375 96.167969 139.222656 Z M 100.554688 134.835938 C 100.921875 135.203125 101.011719 135.84375 100.554688 136.207031 C 99.824219 136.847656 99.09375 137.578125 98.359375 138.21875 C 97.996094 138.585938 97.445312 138.492188 97.082031 138.128906 C 96.808594 137.761719 96.808594 137.214844 97.082031 136.9375 C 97.722656 136.207031 98.453125 135.476562 99.09375 134.746094 C 99.550781 134.472656 100.1875 134.472656 100.554688 134.835938 Z M 101.195312 134.195312 C 100.828125 133.738281 100.828125 133.097656 101.195312 132.734375 L 103.207031 130.539062 C 103.664062 130.082031 104.394531 130.082031 104.851562 130.539062 C 105.308594 130.996094 105.308594 131.726562 104.851562 132.183594 L 102.65625 134.195312 C 102.292969 134.652344 101.652344 134.652344 101.195312 134.195312 Z M 105.308594 130.082031 C 104.851562 129.625 104.851562 128.894531 105.308594 128.4375 L 107.410156 126.335938 C 107.867188 125.878906 108.691406 125.785156 109.148438 126.335938 C 109.605469 126.882812 109.695312 127.613281 109.148438 128.070312 L 107.046875 130.175781 C 106.589844 130.539062 105.765625 130.539062 105.308594 130.082031 Z M 109.515625 125.96875 C 109.058594 125.421875 109.058594 124.6875 109.515625 124.140625 C 110.246094 123.410156 110.886719 122.679688 111.617188 122.039062 C 112.164062 121.488281 112.988281 121.488281 113.535156 122.039062 C 114.085938 122.585938 114.085938 123.410156 113.535156 123.957031 C 112.804688 124.6875 112.164062 125.328125 111.433594 126.058594 C 110.792969 126.425781 109.972656 126.425781 109.515625 125.96875 Z M 113.628906 121.765625 C 113.078125 121.214844 113.078125 120.390625 113.628906 119.84375 L 115.730469 117.742188 C 116.277344 117.191406 117.101562 117.191406 117.648438 117.742188 C 118.199219 118.289062 118.199219 119.113281 117.648438 119.660156 L 115.546875 121.765625 C 115 122.3125 114.175781 122.3125 113.628906 121.765625 Z M 117.832031 117.648438 C 117.285156 117.101562 117.285156 116.277344 117.832031 115.730469 L 119.933594 113.628906 C 120.484375 113.078125 121.308594 113.078125 121.855469 113.628906 C 122.402344 114.175781 122.402344 115 121.855469 115.546875 L 119.753906 117.648438 C 119.203125 118.105469 118.382812 118.105469 117.832031 117.648438 Z M 122.039062 113.351562 C 121.488281 112.804688 121.488281 111.980469 122.039062 111.433594 L 124.140625 109.332031 C 124.6875 108.78125 125.511719 108.78125 126.058594 109.332031 C 126.609375 109.878906 126.609375 110.703125 126.058594 111.160156 L 123.957031 113.261719 C 123.5 113.902344 122.585938 113.902344 122.039062 113.351562 Z M 126.335938 109.148438 C 125.785156 108.691406 125.785156 107.867188 126.335938 107.320312 L 128.4375 105.21875 C 128.894531 104.761719 129.71875 104.761719 130.175781 105.21875 C 130.632812 105.675781 130.632812 106.496094 130.175781 106.953125 L 128.070312 109.058594 C 127.613281 109.605469 126.792969 109.695312 126.335938 109.148438 Z M 130.632812 104.851562 C 130.175781 104.394531 130.175781 103.664062 130.632812 103.113281 L 132.734375 101.011719 C 133.191406 100.554688 133.921875 100.554688 134.378906 101.011719 C 134.835938 101.46875 134.835938 102.199219 134.378906 102.566406 L 132.277344 104.667969 C 131.820312 105.308594 131.089844 105.308594 130.632812 104.851562 Z M 134.929688 100.554688 C 134.472656 100.1875 134.472656 99.457031 134.929688 99 L 137.121094 96.988281 C 137.488281 96.625 138.128906 96.625 138.492188 96.988281 C 138.859375 97.355469 138.859375 97.996094 138.492188 98.359375 L 136.480469 100.554688 C 136.023438 100.921875 135.292969 101.011719 134.929688 100.554688 Z M 139.222656 96.257812 C 138.859375 95.894531 138.859375 95.34375 139.132812 94.980469 C 139.132812 94.980469 139.132812 94.980469 139.222656 94.886719 L 141.417969 92.875 C 141.691406 92.601562 142.242188 92.601562 142.515625 92.875 C 142.789062 93.148438 142.789062 93.605469 142.515625 93.972656 L 140.503906 96.167969 C 140.136719 96.53125 139.589844 96.625 139.222656 96.257812 Z M 143.613281 91.871094 C 143.339844 91.597656 143.339844 91.230469 143.613281 90.957031 L 145.804688 88.945312 C 145.988281 88.761719 146.355469 88.761719 146.539062 88.945312 C 146.71875 89.128906 146.71875 89.492188 146.539062 89.675781 L 144.527344 91.871094 C 144.34375 92.144531 143.886719 92.144531 143.613281 91.871094 Z M 150.558594 84.921875 C 150.652344 85.015625 150.652344 85.105469 150.558594 85.195312 L 148.550781 87.390625 C 148.457031 87.574219 148.183594 87.574219 148 87.390625 C 147.816406 87.300781 147.816406 87.023438 148 86.84375 L 150.195312 84.832031 C 150.378906 84.832031 150.46875 84.832031 150.558594 84.921875 Z M 288.324219 148.09375 L 290.246094 150.378906 L 287.960938 148.457031 C 287.867188 148.367188 287.867188 148.273438 287.960938 148.183594 C 288.050781 148 288.234375 148 288.324219 148.09375 Z M 283.570312 144.34375 C 283.390625 144.160156 283.296875 143.796875 283.570312 143.613281 C 283.753906 143.429688 284.121094 143.339844 284.304688 143.613281 C 284.941406 144.34375 285.675781 145.074219 286.3125 145.804688 C 286.496094 145.988281 286.40625 146.171875 286.3125 146.355469 C 286.132812 146.445312 285.949219 146.445312 285.765625 146.355469 C 285.035156 145.714844 284.304688 145.074219 283.570312 144.34375 Z M 282.292969 141.417969 C 282.566406 141.691406 282.566406 142.148438 282.292969 142.332031 C 282.015625 142.605469 281.652344 142.605469 281.378906 142.332031 L 279.183594 140.320312 C 278.910156 140.046875 278.816406 139.5 279.183594 139.222656 C 279.457031 138.949219 280.007812 138.859375 280.28125 139.222656 Z M 278.269531 137.03125 C 278.636719 137.394531 278.542969 137.945312 278.179688 138.308594 C 277.8125 138.585938 277.265625 138.585938 276.988281 138.308594 C 276.257812 137.671875 275.527344 136.9375 274.796875 136.300781 C 274.429688 135.933594 274.339844 135.292969 274.796875 134.929688 C 275.160156 134.5625 275.800781 134.472656 276.167969 134.929688 C 276.898438 135.566406 277.628906 136.300781 278.269531 137.03125 Z M 274.15625 132.734375 C 274.519531 133.191406 274.519531 133.832031 274.15625 134.289062 C 273.699219 134.652344 273.058594 134.652344 272.691406 134.289062 L 270.5 132.277344 C 270.042969 131.820312 270.042969 131.089844 270.5 130.632812 C 270.957031 130.175781 271.6875 130.175781 272.144531 130.632812 Z M 266.203125 126.242188 C 266.660156 125.785156 267.480469 125.695312 267.9375 126.242188 L 270.042969 128.347656 C 270.5 128.804688 270.5 129.625 270.042969 130.082031 C 269.585938 130.539062 268.851562 130.539062 268.394531 130.082031 L 266.292969 127.980469 C 265.746094 127.523438 265.746094 126.792969 266.203125 126.242188 Z M 261.996094 122.039062 C 262.546875 121.488281 263.367188 121.488281 263.917969 122.039062 C 264.648438 122.769531 265.289062 123.410156 266.019531 124.140625 C 266.476562 124.6875 266.476562 125.511719 266.019531 125.96875 C 265.472656 126.425781 264.738281 126.425781 264.191406 125.96875 C 263.460938 125.238281 262.730469 124.597656 262.089844 123.867188 C 261.449219 123.410156 261.449219 122.496094 261.996094 122.039062 Z M 257.699219 117.742188 C 258.25 117.191406 259.070312 117.191406 259.621094 117.742188 L 261.722656 119.84375 C 262.269531 120.390625 262.269531 121.214844 261.722656 121.765625 C 261.175781 122.3125 260.351562 122.3125 259.804688 121.765625 L 257.699219 119.660156 C 257.152344 119.203125 257.152344 118.289062 257.699219 117.742188 Z M 253.496094 113.535156 C 254.042969 112.988281 254.867188 112.988281 255.414062 113.535156 L 257.519531 115.640625 C 258.066406 116.1875 258.066406 117.011719 257.519531 117.558594 C 256.96875 118.105469 256.148438 118.105469 255.597656 117.558594 L 253.496094 115.457031 C 252.945312 115 252.945312 114.085938 253.496094 113.535156 Z M 249.382812 109.332031 C 249.929688 108.78125 250.753906 108.78125 251.210938 109.332031 L 253.3125 111.433594 C 253.859375 111.980469 253.859375 112.804688 253.3125 113.351562 C 252.765625 113.902344 251.941406 113.902344 251.394531 113.351562 L 249.289062 111.25 C 248.832031 110.703125 248.832031 109.878906 249.382812 109.332031 Z M 245.175781 105.21875 C 245.632812 104.761719 246.457031 104.761719 246.914062 105.21875 L 249.015625 107.320312 C 249.566406 107.777344 249.566406 108.601562 249.015625 109.148438 C 248.558594 109.695312 247.734375 109.695312 247.1875 109.148438 L 245.085938 107.046875 C 244.71875 106.496094 244.71875 105.675781 245.175781 105.21875 Z M 241.0625 101.105469 C 241.519531 100.644531 242.25 100.644531 242.617188 101.105469 L 244.71875 103.207031 C 245.175781 103.664062 245.175781 104.394531 244.71875 104.941406 C 244.261719 105.398438 243.53125 105.398438 242.984375 104.941406 L 240.878906 102.839844 C 240.605469 102.199219 240.605469 101.46875 241.0625 101.105469 Z M 236.949219 98.359375 C 236.582031 97.996094 236.582031 97.355469 236.949219 96.988281 C 237.316406 96.625 237.953125 96.625 238.320312 96.988281 L 240.515625 99 C 240.972656 99.367188 240.972656 100.097656 240.515625 100.554688 C 240.148438 101.011719 239.417969 101.011719 238.960938 100.554688 Z M 236.125 94.980469 C 236.492188 95.34375 236.492188 95.894531 236.21875 96.257812 C 235.851562 96.625 235.304688 96.625 234.9375 96.351562 C 234.9375 96.351562 234.9375 96.351562 234.847656 96.257812 L 232.835938 94.066406 C 232.5625 93.789062 232.5625 93.242188 232.835938 92.96875 C 233.109375 92.691406 233.566406 92.691406 233.933594 92.96875 Z M 231.738281 90.863281 C 232.011719 91.140625 232.011719 91.503906 231.738281 91.777344 C 231.464844 92.054688 231.097656 92.054688 230.824219 91.777344 L 228.8125 89.585938 C 228.628906 89.402344 228.628906 89.035156 228.8125 88.855469 C 228.996094 88.671875 229.363281 88.671875 229.542969 88.855469 Z M 224.882812 85.195312 C 224.789062 85.105469 224.789062 85.015625 224.882812 84.921875 C 224.972656 84.832031 225.066406 84.832031 225.15625 84.921875 L 227.351562 86.933594 C 227.53125 87.023438 227.53125 87.300781 227.351562 87.484375 C 227.257812 87.664062 226.984375 87.664062 226.800781 87.484375 Z M 87.390625 226.984375 C 87.484375 227.074219 87.484375 227.167969 87.390625 227.257812 C 87.300781 227.351562 87.207031 227.351562 87.117188 227.257812 L 85.195312 224.972656 Z M 91.777344 231.007812 C 91.960938 231.191406 92.054688 231.554688 91.777344 231.738281 C 91.597656 231.921875 91.230469 232.011719 91.046875 231.738281 C 90.40625 231.007812 89.675781 230.277344 89.035156 229.542969 C 88.855469 229.363281 88.945312 229.179688 89.035156 228.996094 C 89.21875 228.90625 89.402344 228.90625 89.585938 228.996094 C 90.316406 229.636719 91.046875 230.367188 91.777344 231.007812 Z M 96.167969 235.027344 C 96.441406 235.304688 96.53125 235.851562 96.167969 236.125 C 95.894531 236.402344 95.34375 236.492188 95.070312 236.125 L 93.058594 233.933594 C 92.785156 233.65625 92.785156 233.199219 93.058594 233.019531 C 93.332031 232.742188 93.699219 232.742188 93.972656 233.019531 Z M 100.554688 239.144531 C 100.921875 239.507812 101.011719 240.148438 100.554688 240.515625 C 100.1875 240.878906 99.550781 240.972656 99.183594 240.515625 C 98.542969 239.78125 97.8125 239.050781 97.171875 238.320312 C 96.808594 237.953125 96.898438 237.40625 97.265625 237.039062 C 97.628906 236.765625 98.179688 236.765625 98.453125 237.039062 C 99.09375 237.773438 99.824219 238.410156 100.554688 239.144531 Z M 104.941406 244.8125 C 104.484375 245.269531 103.753906 245.269531 103.296875 244.8125 L 101.285156 242.617188 C 100.921875 242.160156 100.921875 241.519531 101.285156 241.0625 C 101.742188 240.695312 102.382812 240.695312 102.75 241.0625 L 104.941406 243.074219 C 105.308594 243.621094 105.398438 244.355469 104.941406 244.8125 Z M 109.148438 249.109375 C 108.691406 249.566406 107.867188 249.65625 107.410156 249.109375 L 105.308594 247.003906 C 104.851562 246.546875 104.851562 245.726562 105.308594 245.269531 C 105.765625 244.8125 106.496094 244.8125 106.953125 245.269531 L 109.058594 247.371094 C 109.695312 247.828125 109.695312 248.648438 109.148438 249.109375 Z M 113.445312 253.402344 C 112.894531 253.953125 112.074219 253.953125 111.523438 253.402344 C 110.792969 252.671875 110.152344 252.03125 109.421875 251.300781 C 108.964844 250.753906 108.964844 249.929688 109.421875 249.472656 C 109.972656 249.015625 110.703125 249.015625 111.25 249.472656 C 111.980469 250.203125 112.714844 250.84375 113.351562 251.574219 C 113.992188 252.03125 113.992188 252.855469 113.445312 253.402344 Z M 117.648438 257.609375 C 117.101562 258.15625 116.277344 258.15625 115.730469 257.609375 L 113.628906 255.507812 C 113.078125 254.957031 113.078125 254.136719 113.628906 253.585938 C 114.175781 253.039062 115 253.039062 115.546875 253.585938 L 117.648438 255.6875 C 118.199219 256.238281 118.199219 257.0625 117.648438 257.609375 Z M 121.855469 261.8125 C 121.308594 262.363281 120.484375 262.363281 119.933594 261.8125 L 117.832031 259.710938 C 117.285156 259.164062 117.285156 258.339844 117.832031 257.792969 C 118.382812 257.242188 119.203125 257.242188 119.753906 257.792969 L 121.855469 259.894531 C 122.402344 260.441406 122.402344 261.265625 121.855469 261.8125 Z M 126.058594 266.019531 C 125.511719 266.566406 124.6875 266.566406 124.230469 266.019531 L 122.128906 263.917969 C 121.582031 263.367188 121.582031 262.546875 122.128906 261.996094 C 122.679688 261.449219 123.5 261.449219 124.050781 261.996094 L 126.152344 264.101562 C 126.609375 264.648438 126.609375 265.472656 126.058594 266.019531 Z M 130.175781 270.226562 C 129.71875 270.683594 128.894531 270.683594 128.4375 270.226562 L 126.335938 268.121094 C 125.785156 267.664062 125.785156 266.84375 126.335938 266.292969 C 126.792969 265.746094 127.613281 265.746094 128.164062 266.292969 L 130.265625 268.394531 C 130.722656 268.945312 130.722656 269.675781 130.175781 270.226562 Z M 134.378906 274.339844 C 133.921875 274.796875 133.191406 274.796875 132.824219 274.339844 L 130.722656 272.234375 C 130.265625 271.777344 130.265625 271.046875 130.722656 270.5 C 131.179688 270.042969 131.910156 270.042969 132.460938 270.5 L 134.5625 272.601562 C 134.835938 273.148438 134.835938 273.882812 134.378906 274.339844 Z M 138.492188 276.988281 C 138.859375 277.355469 138.859375 277.996094 138.492188 278.359375 C 138.128906 278.726562 137.488281 278.726562 137.121094 278.359375 L 134.929688 276.351562 C 134.472656 275.984375 134.472656 275.253906 134.929688 274.796875 C 135.292969 274.339844 136.023438 274.339844 136.480469 274.796875 Z M 142.515625 281.378906 C 142.789062 281.652344 142.789062 282.199219 142.515625 282.472656 C 142.242188 282.75 141.785156 282.75 141.417969 282.472656 L 139.222656 280.464844 C 138.859375 280.097656 138.859375 279.550781 139.132812 279.183594 C 139.5 278.816406 140.046875 278.816406 140.414062 279.09375 C 140.414062 279.09375 140.414062 279.09375 140.503906 279.183594 Z M 146.539062 285.765625 C 146.71875 285.949219 146.71875 286.3125 146.539062 286.496094 C 146.355469 286.679688 145.988281 286.679688 145.804688 286.496094 L 143.613281 284.484375 C 143.339844 284.210938 143.339844 283.847656 143.613281 283.570312 C 143.886719 283.296875 144.253906 283.296875 144.527344 283.570312 Z M 150.558594 290.246094 C 150.652344 290.335938 150.652344 290.429688 150.558594 290.519531 C 150.46875 290.609375 150.378906 290.609375 150.285156 290.519531 L 148.09375 288.507812 C 147.910156 288.417969 147.910156 288.140625 148.09375 287.960938 C 148.183594 287.777344 148.457031 287.777344 148.640625 287.960938 Z M 288.050781 226.984375 L 290.335938 225.066406 L 288.417969 227.351562 C 288.324219 227.441406 288.234375 227.441406 288.140625 227.351562 C 287.960938 227.257812 287.960938 227.167969 288.050781 226.984375 C 288.050781 227.074219 288.050781 227.074219 288.050781 226.984375 Z M 286.3125 229.085938 C 286.40625 229.269531 286.40625 229.453125 286.3125 229.636719 C 285.675781 230.367188 284.941406 231.097656 284.304688 231.828125 C 284.121094 232.011719 283.753906 232.105469 283.570312 231.828125 C 283.390625 231.648438 283.296875 231.28125 283.570312 231.097656 C 284.304688 230.457031 285.035156 229.726562 285.765625 229.085938 C 285.949219 228.90625 286.222656 228.90625 286.3125 229.085938 Z M 282.292969 233.019531 C 282.566406 233.292969 282.566406 233.65625 282.292969 233.933594 L 280.28125 236.125 C 280.007812 236.402344 279.457031 236.492188 279.183594 236.125 C 278.910156 235.851562 278.816406 235.304688 279.183594 235.027344 L 281.378906 233.019531 C 281.652344 232.742188 282.109375 232.742188 282.292969 233.019531 Z M 278.269531 237.132812 C 278.542969 237.496094 278.542969 238.046875 278.269531 238.320312 C 277.628906 239.050781 276.898438 239.78125 276.257812 240.515625 C 275.890625 240.878906 275.253906 240.972656 274.886719 240.515625 C 274.519531 240.148438 274.429688 239.507812 274.886719 239.144531 C 275.617188 238.503906 276.351562 237.773438 277.082031 237.132812 C 277.355469 236.765625 277.902344 236.765625 278.269531 237.132812 Z M 274.15625 241.246094 C 274.519531 241.703125 274.519531 242.34375 274.15625 242.707031 L 272.144531 244.902344 C 271.6875 245.359375 270.957031 245.359375 270.5 244.902344 C 270.042969 244.445312 270.042969 243.714844 270.5 243.257812 L 272.691406 241.246094 C 273.148438 240.789062 273.789062 240.789062 274.15625 241.246094 Z M 270.042969 245.269531 C 270.5 245.726562 270.5 246.457031 270.042969 246.914062 L 267.9375 249.015625 C 267.480469 249.472656 266.660156 249.566406 266.203125 249.015625 C 265.746094 248.558594 265.652344 247.734375 266.203125 247.277344 L 268.304688 245.175781 C 268.851562 244.8125 269.585938 244.8125 270.042969 245.269531 Z M 265.929688 249.472656 C 266.386719 250.023438 266.386719 250.753906 265.929688 251.300781 C 265.195312 252.03125 264.558594 252.765625 263.824219 253.402344 C 263.277344 253.953125 262.453125 253.953125 261.90625 253.402344 C 261.355469 252.855469 261.355469 252.03125 261.90625 251.484375 C 262.636719 250.753906 263.277344 250.113281 264.007812 249.382812 C 264.648438 248.925781 265.472656 248.925781 265.929688 249.472656 Z M 261.722656 253.585938 C 262.269531 254.136719 262.269531 254.957031 261.722656 255.507812 L 259.621094 257.609375 C 259.070312 258.15625 258.25 258.15625 257.699219 257.609375 C 257.152344 257.0625 257.152344 256.238281 257.699219 255.6875 L 259.804688 253.585938 C 260.351562 253.128906 261.265625 253.128906 261.722656 253.585938 Z M 257.519531 257.792969 C 258.066406 258.339844 258.066406 259.164062 257.519531 259.710938 L 255.414062 261.8125 C 254.867188 262.363281 254.042969 262.363281 253.496094 261.8125 C 252.945312 261.265625 252.945312 260.441406 253.496094 259.894531 L 255.597656 257.792969 C 256.148438 257.242188 257.0625 257.242188 257.519531 257.792969 Z M 253.3125 261.996094 C 253.859375 262.546875 253.859375 263.367188 253.3125 263.917969 L 251.210938 266.019531 C 250.660156 266.566406 249.839844 266.566406 249.289062 266.019531 C 248.742188 265.472656 248.742188 264.648438 249.289062 264.191406 L 251.394531 262.089844 C 251.941406 261.449219 252.765625 261.449219 253.3125 261.996094 Z M 249.109375 266.203125 C 249.65625 266.660156 249.65625 267.480469 249.109375 268.03125 L 247.003906 270.132812 C 246.546875 270.589844 245.726562 270.589844 245.269531 270.132812 C 244.8125 269.675781 244.8125 268.851562 245.269531 268.394531 L 247.371094 266.292969 C 247.734375 265.746094 248.558594 265.746094 249.109375 266.203125 Z M 244.8125 270.5 C 245.269531 270.957031 245.269531 271.6875 244.8125 272.234375 L 242.707031 274.339844 C 242.25 274.796875 241.519531 274.796875 241.0625 274.339844 C 240.605469 273.882812 240.605469 273.148438 241.0625 272.785156 L 243.164062 270.683594 C 243.53125 270.042969 244.355469 270.042969 244.8125 270.5 Z M 240.515625 274.796875 C 240.972656 275.160156 240.972656 275.894531 240.515625 276.351562 L 238.320312 278.359375 C 237.953125 278.726562 237.316406 278.726562 236.949219 278.359375 C 236.582031 277.996094 236.582031 277.355469 236.949219 276.988281 L 238.960938 274.796875 C 239.417969 274.429688 240.058594 274.429688 240.515625 274.796875 Z M 236.125 279.183594 C 236.492188 279.550781 236.492188 280.097656 236.21875 280.464844 C 236.21875 280.464844 236.21875 280.464844 236.125 280.554688 L 233.933594 282.566406 C 233.65625 282.839844 233.109375 282.839844 232.835938 282.566406 C 232.5625 282.292969 232.5625 281.835938 232.835938 281.46875 L 234.847656 279.273438 C 235.210938 278.816406 235.761719 278.816406 236.125 279.183594 Z M 231.738281 283.480469 C 232.011719 283.753906 232.011719 284.121094 231.738281 284.394531 L 229.542969 286.40625 C 229.363281 286.589844 228.996094 286.589844 228.8125 286.40625 C 228.628906 286.222656 228.628906 285.855469 228.8125 285.675781 L 230.824219 283.480469 C 231.097656 283.296875 231.464844 283.296875 231.738281 283.480469 Z M 227.351562 288.507812 L 225.15625 290.519531 C 225.066406 290.609375 224.972656 290.609375 224.882812 290.519531 C 224.789062 290.429688 224.789062 290.335938 224.882812 290.246094 L 226.894531 288.050781 C 226.984375 287.867188 227.257812 287.867188 227.441406 288.050781 C 227.53125 288.050781 227.53125 288.324219 227.351562 288.507812 Z M 72.855469 222.414062 L 74.777344 224.515625 L 72.671875 222.597656 C 72.582031 222.503906 72.582031 222.414062 72.671875 222.324219 C 72.671875 222.414062 72.765625 222.414062 72.855469 222.414062 Z M 70.9375 220.402344 C 71.027344 220.492188 71.027344 220.675781 70.9375 220.859375 C 70.84375 220.949219 70.660156 220.949219 70.570312 220.859375 L 68.46875 218.941406 C 68.285156 218.757812 68.285156 218.484375 68.46875 218.300781 C 68.652344 218.117188 68.925781 218.117188 69.109375 218.300781 Z M 67.1875 216.199219 C 67.371094 216.378906 67.371094 216.746094 67.1875 216.929688 C 67.003906 217.113281 66.640625 217.113281 66.457031 216.929688 L 64.355469 215.007812 C 64.078125 214.734375 64.078125 214.367188 64.355469 214.09375 C 64.628906 213.820312 64.992188 213.820312 65.269531 214.09375 Z M 63.257812 212.082031 C 63.53125 212.359375 63.53125 212.816406 63.257812 213.179688 C 62.984375 213.453125 62.527344 213.453125 62.25 213.179688 L 60.148438 211.261719 C 59.78125 210.988281 59.78125 210.4375 60.148438 210.074219 C 60.421875 209.707031 60.972656 209.707031 61.335938 210.074219 Z M 59.417969 207.96875 C 59.78125 208.335938 59.78125 208.882812 59.417969 209.25 C 59.050781 209.617188 58.503906 209.617188 58.136719 209.25 L 56.125 207.328125 C 55.761719 206.964844 55.761719 206.324219 56.125 205.957031 C 56.492188 205.59375 57.132812 205.59375 57.496094 205.957031 Z M 55.488281 205.320312 C 55.121094 205.683594 54.480469 205.683594 54.023438 205.320312 L 52.011719 203.398438 C 51.554688 202.941406 51.554688 202.300781 52.011719 201.84375 C 52.46875 201.386719 53.109375 201.386719 53.566406 201.84375 L 55.488281 203.855469 C 55.945312 204.3125 55.851562 204.953125 55.488281 205.320312 Z M 51.554688 201.386719 C 51.097656 201.84375 50.367188 201.84375 50 201.386719 L 47.992188 199.375 C 47.535156 198.917969 47.535156 198.1875 47.992188 197.730469 C 48.449219 197.273438 49.179688 197.273438 49.636719 197.730469 L 51.648438 199.742188 C 52.011719 200.289062 52.011719 201.023438 51.554688 201.386719 Z M 47.625 197.457031 C 47.167969 197.914062 46.4375 197.914062 45.886719 197.457031 L 43.875 195.445312 C 43.417969 194.988281 43.328125 194.164062 43.875 193.707031 C 44.332031 193.25 45.15625 193.160156 45.613281 193.707031 L 47.625 195.71875 C 48.082031 196.269531 48.082031 197 47.625 197.457031 Z M 43.695312 193.527344 C 43.238281 193.984375 42.414062 193.984375 41.957031 193.527344 L 39.945312 191.515625 C 39.488281 191.058594 39.398438 190.234375 39.945312 189.6875 C 40.402344 189.230469 41.226562 189.136719 41.773438 189.6875 L 43.785156 191.699219 C 44.152344 192.246094 44.152344 193.070312 43.695312 193.527344 Z M 39.671875 189.503906 C 39.214844 189.960938 38.390625 189.960938 37.84375 189.503906 L 36.199219 187.949219 C 35.648438 187.492188 35.648438 186.667969 36.199219 186.121094 L 36.5625 185.753906 C 37.113281 185.207031 37.933594 185.207031 38.390625 185.753906 C 38.664062 186.03125 38.847656 186.488281 38.757812 186.945312 L 39.578125 187.765625 C 40.21875 188.222656 40.21875 189.046875 39.671875 189.503906 Z M 38.664062 185.574219 C 38.117188 185.023438 38.117188 184.292969 38.664062 183.746094 L 40.675781 181.734375 C 41.132812 181.277344 41.957031 181.277344 42.503906 181.734375 C 42.960938 182.191406 42.960938 183.011719 42.503906 183.5625 L 40.496094 185.574219 C 40.035156 186.03125 39.214844 186.03125 38.664062 185.574219 Z M 42.6875 181.550781 C 42.230469 181.09375 42.230469 180.269531 42.6875 179.722656 L 44.699219 177.710938 C 45.15625 177.253906 45.980469 177.253906 46.4375 177.710938 C 46.894531 178.167969 46.894531 178.992188 46.4375 179.449219 L 44.425781 181.457031 C 43.96875 182.007812 43.144531 182.007812 42.6875 181.550781 Z M 46.710938 177.527344 C 46.253906 177.070312 46.253906 176.25 46.710938 175.792969 L 48.722656 173.78125 C 49.179688 173.324219 49.910156 173.324219 50.457031 173.78125 C 50.914062 174.238281 50.914062 174.96875 50.457031 175.425781 L 48.449219 177.4375 C 47.992188 177.984375 47.167969 177.984375 46.710938 177.527344 Z M 50.734375 173.503906 C 50.277344 173.046875 50.277344 172.316406 50.734375 171.859375 L 52.742188 169.847656 C 53.199219 169.390625 53.933594 169.390625 54.296875 169.847656 C 54.753906 170.304688 54.753906 170.945312 54.296875 171.402344 L 52.285156 173.414062 C 51.921875 173.960938 51.191406 173.960938 50.734375 173.503906 Z M 54.847656 169.484375 C 54.390625 169.117188 54.390625 168.386719 54.847656 167.929688 L 56.859375 166.007812 C 57.222656 165.644531 57.863281 165.644531 58.320312 166.007812 C 58.6875 166.375 58.6875 167.015625 58.320312 167.378906 L 56.402344 169.390625 C 55.945312 169.847656 55.210938 169.847656 54.847656 169.484375 Z M 58.867188 165.371094 C 58.503906 165.003906 58.503906 164.457031 58.867188 164 L 60.878906 162.078125 C 61.246094 161.714844 61.792969 161.714844 62.160156 162.078125 C 62.527344 162.445312 62.527344 162.992188 62.160156 163.265625 L 60.242188 165.277344 C 59.875 165.734375 59.234375 165.734375 58.867188 165.371094 Z M 64.078125 161.253906 C 63.804688 161.53125 63.257812 161.621094 62.984375 161.253906 C 62.707031 160.980469 62.617188 160.433594 62.984375 160.160156 L 65.085938 158.238281 C 65.359375 157.964844 65.816406 157.964844 66.089844 158.238281 C 66.363281 158.511719 66.363281 158.96875 66.089844 159.246094 Z M 69.929688 155.039062 L 68.011719 157.140625 C 67.828125 157.417969 67.371094 157.417969 67.1875 157.140625 C 66.914062 156.960938 66.914062 156.503906 67.1875 156.320312 L 69.289062 154.398438 C 69.472656 154.214844 69.839844 154.214844 70.023438 154.398438 C 70.023438 154.582031 70.023438 154.855469 69.929688 155.039062 Z M 73.679688 150.835938 L 71.757812 152.9375 C 71.574219 153.121094 71.394531 153.121094 71.210938 152.9375 C 71.027344 152.753906 71.027344 152.570312 71.210938 152.386719 L 73.3125 150.46875 C 73.402344 150.378906 73.585938 150.378906 73.679688 150.46875 C 73.769531 150.652344 73.769531 150.742188 73.679688 150.835938 Z M 75.507812 148.640625 L 76.511719 147.726562 L 75.597656 148.730469 C 75.597656 148.730469 75.507812 148.730469 75.507812 148.730469 C 75.414062 148.730469 75.414062 148.640625 75.507812 148.640625 Z M 222.414062 72.855469 C 222.324219 72.765625 222.324219 72.671875 222.414062 72.582031 C 222.503906 72.488281 222.597656 72.488281 222.6875 72.582031 L 224.609375 74.683594 Z M 218.300781 69.109375 C 218.117188 68.925781 218.117188 68.652344 218.300781 68.46875 C 218.484375 68.285156 218.757812 68.285156 218.941406 68.46875 L 220.859375 70.570312 C 220.949219 70.660156 220.949219 70.84375 220.859375 71.027344 C 220.769531 71.117188 220.585938 71.117188 220.492188 71.027344 Z M 214.09375 65.269531 C 213.820312 64.992188 213.820312 64.628906 214.09375 64.355469 C 214.367188 64.078125 214.734375 64.078125 215.007812 64.355469 L 216.929688 66.457031 C 217.113281 66.640625 217.113281 67.003906 216.929688 67.1875 C 216.746094 67.371094 216.378906 67.371094 216.199219 67.1875 Z M 209.980469 61.335938 C 209.617188 61.0625 209.617188 60.515625 209.980469 60.148438 C 210.253906 59.78125 210.804688 59.78125 211.167969 60.148438 L 213.089844 62.25 C 213.363281 62.527344 213.363281 62.984375 213.089844 63.347656 C 212.816406 63.621094 212.359375 63.621094 212.082031 63.347656 Z M 205.867188 56.125 C 206.234375 55.761719 206.871094 55.761719 207.238281 56.125 L 209.160156 58.136719 C 209.523438 58.503906 209.523438 59.050781 209.160156 59.417969 C 208.792969 59.78125 208.242188 59.78125 207.878906 59.417969 L 205.867188 57.496094 C 205.5 57.132812 205.5 56.492188 205.867188 56.125 Z M 201.753906 52.011719 C 202.210938 51.554688 202.851562 51.554688 203.308594 52.011719 L 205.226562 54.023438 C 205.59375 54.480469 205.59375 55.121094 205.226562 55.488281 C 204.863281 55.851562 204.222656 55.851562 203.765625 55.488281 L 201.753906 53.566406 C 201.386719 53.109375 201.386719 52.46875 201.753906 52.011719 Z M 197.730469 47.992188 C 198.1875 47.535156 198.917969 47.535156 199.375 47.992188 L 201.386719 50 C 201.84375 50.457031 201.84375 51.191406 201.386719 51.648438 C 200.929688 52.105469 200.199219 52.105469 199.832031 51.648438 L 197.824219 49.636719 C 197.273438 49.179688 197.273438 48.449219 197.730469 47.992188 Z M 193.707031 43.875 C 194.164062 43.417969 194.988281 43.328125 195.445312 43.875 L 197.457031 45.886719 C 197.914062 46.34375 197.914062 47.167969 197.457031 47.625 C 197 48.082031 196.269531 48.082031 195.71875 47.625 L 193.707031 45.613281 C 193.25 45.15625 193.25 44.425781 193.707031 43.875 Z M 189.6875 39.945312 C 190.144531 39.488281 190.964844 39.398438 191.515625 39.945312 L 193.527344 41.957031 C 193.984375 42.414062 193.984375 43.238281 193.527344 43.785156 C 193.070312 44.242188 192.246094 44.242188 191.789062 43.785156 L 189.777344 41.773438 C 189.230469 41.226562 189.230469 40.402344 189.6875 39.945312 Z M 185.753906 38.484375 C 185.207031 37.933594 185.207031 37.113281 185.753906 36.65625 L 186.121094 36.289062 C 186.667969 35.832031 187.402344 35.832031 187.949219 36.289062 L 189.503906 37.933594 C 189.960938 38.484375 189.960938 39.214844 189.503906 39.761719 C 189.046875 40.21875 188.222656 40.21875 187.675781 39.761719 L 186.851562 38.941406 C 186.488281 38.941406 186.03125 38.847656 185.753906 38.484375 Z M 181.734375 42.503906 C 181.277344 42.046875 181.277344 41.226562 181.734375 40.675781 L 183.746094 38.664062 C 184.292969 38.117188 185.023438 38.117188 185.574219 38.664062 C 186.121094 39.214844 186.121094 39.945312 185.574219 40.496094 L 183.5625 42.503906 C 183.011719 42.960938 182.191406 42.960938 181.734375 42.503906 Z M 177.800781 46.4375 C 177.34375 45.980469 177.34375 45.15625 177.800781 44.699219 L 179.8125 42.6875 C 180.269531 42.230469 181.09375 42.230469 181.640625 42.6875 C 182.097656 43.144531 182.097656 43.96875 181.640625 44.515625 L 179.628906 46.527344 C 179.082031 46.984375 178.257812 46.984375 177.800781 46.4375 Z M 173.78125 50.367188 C 173.324219 49.910156 173.324219 49.179688 173.78125 48.722656 L 175.792969 46.710938 C 176.25 46.253906 177.070312 46.253906 177.527344 46.710938 C 177.984375 47.167969 177.984375 47.992188 177.527344 48.449219 L 175.515625 50.457031 C 175.058594 50.914062 174.238281 50.914062 173.78125 50.367188 Z M 169.847656 54.296875 C 169.390625 53.839844 169.390625 53.199219 169.847656 52.742188 L 171.859375 50.734375 C 172.316406 50.277344 173.046875 50.277344 173.503906 50.734375 C 173.960938 51.191406 173.960938 51.921875 173.503906 52.378906 L 171.496094 54.390625 C 171.039062 54.753906 170.304688 54.753906 169.847656 54.296875 Z M 165.917969 58.230469 C 165.550781 57.863281 165.550781 57.222656 165.917969 56.859375 L 167.835938 54.847656 C 168.203125 54.390625 168.933594 54.390625 169.390625 54.847656 C 169.847656 55.210938 169.847656 55.945312 169.390625 56.402344 L 167.378906 58.320312 C 167.015625 58.6875 166.375 58.6875 165.917969 58.230469 Z M 162.078125 62.160156 C 161.714844 61.792969 161.714844 61.246094 162.078125 60.972656 L 164 58.960938 C 164.363281 58.59375 164.914062 58.59375 165.371094 58.960938 C 165.734375 59.324219 165.734375 59.875 165.371094 60.332031 L 163.359375 62.25 C 162.902344 62.527344 162.351562 62.527344 162.078125 62.160156 Z M 161.253906 62.984375 C 161.53125 63.257812 161.621094 63.804688 161.253906 64.078125 L 159.152344 66 C 158.878906 66.273438 158.421875 66.273438 158.148438 66 C 157.875 65.726562 157.875 65.269531 158.148438 64.992188 L 160.066406 62.890625 C 160.433594 62.707031 160.890625 62.707031 161.253906 62.984375 Z M 157.140625 67.097656 C 157.417969 67.28125 157.417969 67.738281 157.140625 67.917969 L 155.039062 69.839844 C 154.855469 70.023438 154.492188 70.023438 154.308594 69.839844 C 154.125 69.65625 154.125 69.382812 154.308594 69.199219 L 156.226562 67.097656 C 156.503906 66.914062 156.867188 66.820312 157.140625 67.097656 Z M 152.9375 71.210938 C 153.121094 71.394531 153.121094 71.574219 152.9375 71.757812 L 150.835938 73.679688 C 150.742188 73.769531 150.558594 73.769531 150.46875 73.679688 C 150.378906 73.585938 150.378906 73.496094 150.46875 73.402344 L 152.386719 71.300781 C 152.570312 71.117188 152.84375 71.117188 152.9375 71.210938 Z M 148.730469 75.597656 L 147.726562 76.511719 L 148.640625 75.507812 C 148.640625 75.507812 148.730469 75.507812 148.730469 75.507812 C 148.824219 75.507812 148.824219 75.507812 148.730469 75.597656 Z M 152.9375 302.496094 C 153.027344 302.585938 153.027344 302.675781 152.9375 302.769531 C 152.84375 302.859375 152.753906 302.859375 152.664062 302.769531 L 150.742188 300.667969 Z M 157.140625 306.335938 C 157.324219 306.515625 157.324219 306.792969 157.140625 306.972656 C 156.960938 307.15625 156.683594 307.15625 156.503906 306.972656 L 154.582031 304.871094 C 154.492188 304.78125 154.492188 304.597656 154.582031 304.414062 C 154.675781 304.324219 154.855469 304.324219 154.949219 304.414062 Z M 161.253906 310.175781 C 161.53125 310.449219 161.53125 310.8125 161.253906 311.089844 C 160.980469 311.363281 160.617188 311.363281 160.339844 311.089844 L 158.421875 308.984375 C 158.238281 308.800781 158.238281 308.4375 158.421875 308.253906 C 158.605469 308.070312 158.96875 308.070312 159.152344 308.253906 Z M 165.371094 314.011719 C 165.734375 314.289062 165.734375 314.835938 165.371094 315.203125 C 165.09375 315.566406 164.546875 315.566406 164.179688 315.203125 L 162.261719 313.097656 C 161.988281 312.824219 161.988281 312.367188 162.261719 312.003906 C 162.535156 311.726562 162.992188 311.726562 163.265625 312.003906 Z M 169.484375 319.316406 C 169.117188 319.679688 168.476562 319.679688 168.113281 319.316406 L 166.191406 317.304688 C 165.828125 316.9375 165.828125 316.390625 166.191406 316.023438 C 166.558594 315.660156 167.105469 315.660156 167.472656 316.023438 L 169.484375 317.945312 C 169.847656 318.308594 169.847656 318.949219 169.484375 319.316406 Z M 173.597656 323.429688 C 173.140625 323.886719 172.5 323.886719 172.042969 323.429688 L 170.125 321.417969 C 169.757812 320.960938 169.757812 320.320312 170.125 319.957031 C 170.488281 319.589844 171.128906 319.589844 171.585938 319.957031 L 173.597656 321.875 C 173.960938 322.242188 174.054688 322.972656 173.597656 323.429688 Z M 177.621094 327.453125 C 177.164062 327.910156 176.429688 327.910156 175.972656 327.453125 L 173.960938 325.441406 C 173.503906 324.984375 173.503906 324.253906 173.960938 323.796875 C 174.417969 323.339844 175.152344 323.339844 175.515625 323.796875 L 177.527344 325.804688 C 178.078125 326.261719 178.078125 326.996094 177.621094 327.453125 Z M 181.640625 331.472656 C 181.183594 331.929688 180.363281 332.023438 179.90625 331.472656 L 177.894531 329.460938 C 177.4375 329.003906 177.4375 328.183594 177.894531 327.726562 C 178.351562 327.269531 179.082031 327.269531 179.628906 327.726562 L 181.640625 329.738281 C 182.191406 330.195312 182.191406 331.015625 181.640625 331.472656 Z M 185.664062 335.496094 C 185.207031 335.953125 184.382812 336.042969 183.835938 335.496094 L 181.824219 333.484375 C 181.367188 333.027344 181.367188 332.207031 181.824219 331.65625 C 182.28125 331.199219 183.105469 331.199219 183.5625 331.65625 L 185.574219 333.667969 C 186.210938 334.214844 186.210938 334.949219 185.664062 335.496094 Z M 189.6875 336.867188 C 190.234375 337.417969 190.234375 338.238281 189.6875 338.695312 L 189.320312 339.0625 C 188.773438 339.519531 188.039062 339.519531 187.492188 339.0625 L 185.9375 337.417969 C 185.480469 336.867188 185.480469 336.136719 185.9375 335.585938 C 186.394531 335.128906 187.21875 335.128906 187.765625 335.585938 L 188.589844 336.410156 C 188.957031 336.410156 189.320312 336.59375 189.6875 336.867188 Z M 193.617188 332.9375 C 194.074219 333.394531 194.074219 334.214844 193.617188 334.765625 L 191.605469 336.777344 C 191.058594 337.324219 190.328125 337.324219 189.777344 336.777344 C 189.230469 336.226562 189.230469 335.496094 189.777344 334.949219 L 191.789062 332.9375 C 192.335938 332.386719 193.160156 332.386719 193.617188 332.9375 Z M 197.640625 328.914062 C 198.097656 329.371094 198.097656 330.195312 197.640625 330.652344 L 195.628906 332.664062 C 195.171875 333.121094 194.347656 333.121094 193.800781 332.664062 C 193.34375 332.207031 193.34375 331.382812 193.800781 330.835938 L 195.8125 328.824219 C 196.359375 328.457031 197.183594 328.457031 197.640625 328.914062 Z M 201.570312 324.984375 C 202.027344 325.441406 202.027344 326.171875 201.570312 326.628906 L 199.558594 328.640625 C 199.101562 329.097656 198.28125 329.097656 197.824219 328.640625 C 197.367188 328.183594 197.367188 327.359375 197.824219 326.902344 L 199.832031 324.890625 C 200.382812 324.527344 201.113281 324.527344 201.570312 324.984375 Z M 205.5 321.050781 C 205.957031 321.507812 205.957031 322.148438 205.5 322.605469 L 203.492188 324.617188 C 203.035156 325.074219 202.300781 325.074219 201.84375 324.617188 C 201.386719 324.160156 201.386719 323.429688 201.84375 322.972656 L 203.855469 320.960938 C 204.40625 320.59375 205.136719 320.59375 205.5 321.050781 Z M 209.433594 317.121094 C 209.796875 317.488281 209.796875 318.128906 209.433594 318.492188 L 207.511719 320.503906 C 207.148438 320.960938 206.414062 320.960938 205.957031 320.503906 C 205.5 320.136719 205.5 319.40625 205.957031 318.949219 L 207.96875 317.03125 C 208.425781 316.757812 209.066406 316.757812 209.433594 317.121094 Z M 213.363281 313.28125 C 213.730469 313.648438 213.730469 314.195312 213.363281 314.46875 L 211.445312 316.480469 C 211.078125 316.847656 210.53125 316.847656 210.074219 316.480469 C 209.707031 316.117188 209.707031 315.566406 210.074219 315.109375 L 212.082031 313.191406 C 212.449219 312.917969 212.996094 312.917969 213.363281 313.28125 Z M 217.203125 309.351562 C 217.476562 309.625 217.476562 310.082031 217.203125 310.355469 L 215.28125 312.460938 C 215.007812 312.734375 214.460938 312.824219 214.1875 312.460938 C 213.910156 312.183594 213.820312 311.636719 214.1875 311.363281 L 216.289062 309.441406 C 216.472656 309.078125 216.929688 309.078125 217.203125 309.351562 Z M 221.042969 305.511719 C 221.226562 305.695312 221.226562 305.96875 221.042969 306.152344 L 219.121094 308.253906 C 218.941406 308.527344 218.484375 308.527344 218.300781 308.253906 C 218.027344 308.070312 218.027344 307.613281 218.300781 307.429688 L 220.402344 305.511719 C 220.585938 305.328125 220.859375 305.328125 221.042969 305.511719 Z M 224.882812 301.671875 C 224.972656 301.761719 224.972656 301.855469 224.882812 301.945312 L 222.960938 304.050781 C 222.78125 304.230469 222.597656 304.230469 222.414062 304.050781 C 222.230469 303.867188 222.230469 303.683594 222.414062 303.5 L 224.515625 301.582031 C 224.609375 301.582031 224.789062 301.582031 224.882812 301.671875 Z M 226.617188 299.84375 L 227.625 298.929688 L 226.710938 299.933594 C 226.710938 299.933594 226.617188 299.933594 226.617188 299.933594 C 226.617188 299.933594 226.617188 299.84375 226.617188 299.84375 Z M 302.496094 152.9375 L 300.574219 150.835938 L 302.675781 152.753906 C 302.769531 152.84375 302.769531 152.9375 302.675781 153.027344 C 302.675781 153.027344 302.585938 153.027344 302.496094 152.9375 Z M 306.335938 157.140625 L 304.414062 155.039062 C 304.324219 154.949219 304.324219 154.765625 304.414062 154.582031 C 304.507812 154.492188 304.6875 154.492188 304.78125 154.582031 L 306.882812 156.503906 C 307.066406 156.683594 307.066406 156.960938 306.882812 157.140625 C 306.792969 157.324219 306.515625 157.324219 306.335938 157.140625 Z M 308.253906 159.152344 C 308.070312 158.96875 308.070312 158.605469 308.253906 158.421875 C 308.4375 158.238281 308.800781 158.238281 308.984375 158.421875 L 311.089844 160.339844 C 311.363281 160.617188 311.363281 160.980469 311.089844 161.253906 C 310.8125 161.53125 310.449219 161.53125 310.175781 161.253906 Z M 312.09375 163.359375 C 311.820312 163.085938 311.820312 162.628906 312.09375 162.261719 C 312.367188 161.988281 312.824219 161.988281 313.097656 162.261719 L 315.203125 164.179688 C 315.566406 164.457031 315.566406 165.003906 315.203125 165.371094 C 314.925781 165.734375 314.378906 165.734375 314.011719 165.371094 Z M 315.933594 167.472656 C 315.566406 167.105469 315.566406 166.558594 315.933594 166.191406 C 316.296875 165.828125 316.847656 165.828125 317.214844 166.191406 L 319.222656 168.113281 C 319.589844 168.476562 319.589844 169.117188 319.222656 169.484375 C 318.859375 169.847656 318.21875 169.847656 317.851562 169.484375 Z M 319.957031 170.03125 C 320.320312 169.667969 320.960938 169.667969 321.417969 170.03125 L 323.429688 171.953125 C 323.886719 172.410156 323.886719 173.046875 323.429688 173.503906 C 322.972656 173.960938 322.332031 173.960938 321.875 173.503906 L 319.957031 171.496094 C 319.5 171.128906 319.5 170.488281 319.957031 170.03125 Z M 323.796875 173.960938 C 324.253906 173.503906 324.984375 173.503906 325.347656 173.960938 L 327.359375 175.972656 C 327.816406 176.429688 327.816406 177.164062 327.359375 177.621094 C 326.902344 178.078125 326.171875 178.078125 325.714844 177.621094 L 323.703125 175.609375 C 323.339844 175.152344 323.339844 174.417969 323.796875 173.960938 Z M 327.726562 177.894531 C 328.183594 177.4375 328.914062 177.4375 329.460938 177.894531 L 331.472656 179.90625 C 331.929688 180.363281 332.023438 181.183594 331.472656 181.640625 C 331.015625 182.097656 330.195312 182.191406 329.738281 181.640625 L 327.726562 179.628906 C 327.269531 179.171875 327.269531 178.351562 327.726562 177.894531 Z M 331.75 181.917969 C 332.207031 181.457031 333.027344 181.457031 333.484375 181.917969 L 335.496094 183.925781 C 335.953125 184.382812 336.042969 185.207031 335.496094 185.753906 C 335.039062 186.210938 334.214844 186.304688 333.667969 185.753906 L 331.65625 183.746094 C 331.199219 183.195312 331.199219 182.375 331.75 181.917969 Z M 339.152344 189.230469 L 338.695312 189.6875 C 338.148438 190.234375 337.324219 190.234375 336.867188 189.6875 C 336.59375 189.414062 336.410156 188.957031 336.5 188.5 L 335.679688 187.675781 C 335.222656 187.125 335.222656 186.394531 335.679688 185.847656 C 336.136719 185.390625 336.960938 185.390625 337.507812 185.847656 L 339.152344 187.402344 C 339.609375 187.949219 339.609375 188.773438 339.152344 189.230469 Z M 336.683594 189.871094 C 337.234375 190.417969 337.234375 191.148438 336.683594 191.699219 L 334.671875 193.707031 C 334.214844 194.164062 333.394531 194.164062 332.84375 193.707031 C 332.386719 193.25 332.386719 192.429688 332.84375 191.878906 L 334.855469 189.871094 C 335.40625 189.320312 336.226562 189.320312 336.683594 189.871094 Z M 332.664062 193.800781 C 333.121094 194.257812 333.121094 195.078125 332.664062 195.628906 L 330.652344 197.640625 C 330.195312 198.097656 329.371094 198.097656 328.914062 197.640625 C 328.457031 197.183594 328.457031 196.359375 328.914062 195.902344 L 330.925781 193.890625 C 331.382812 193.34375 332.207031 193.34375 332.664062 193.800781 Z M 328.730469 197.824219 C 329.1875 198.28125 329.1875 199.101562 328.730469 199.558594 L 326.71875 201.570312 C 326.261719 202.027344 325.53125 202.027344 324.984375 201.570312 C 324.527344 201.113281 324.527344 200.382812 324.984375 199.925781 L 326.996094 197.914062 C 327.453125 197.367188 328.183594 197.367188 328.730469 197.824219 Z M 324.617188 201.9375 C 325.074219 202.394531 325.074219 203.125 324.617188 203.582031 L 322.605469 205.59375 C 322.148438 206.050781 321.417969 206.050781 321.050781 205.59375 C 320.59375 205.136719 320.59375 204.496094 321.050781 204.039062 L 323.0625 202.027344 C 323.429688 201.480469 324.160156 201.480469 324.617188 201.9375 Z M 320.59375 205.957031 C 321.050781 206.324219 321.050781 207.054688 320.59375 207.511719 L 318.585938 209.433594 C 318.21875 209.796875 317.578125 209.796875 317.121094 209.433594 C 316.757812 209.066406 316.757812 208.425781 317.121094 208.0625 L 319.042969 206.050781 C 319.5 205.5 320.136719 205.5 320.59375 205.957031 Z M 316.480469 209.980469 C 316.847656 210.347656 316.847656 210.894531 316.480469 211.351562 L 314.46875 213.273438 C 314.105469 213.636719 313.554688 213.636719 313.191406 213.273438 C 312.824219 212.90625 312.824219 212.359375 313.191406 212.082031 L 315.109375 210.074219 C 315.566406 209.707031 316.117188 209.707031 316.480469 209.980469 Z M 312.367188 214.09375 C 312.640625 214.367188 312.734375 214.917969 312.367188 215.191406 L 310.265625 217.113281 C 309.992188 217.386719 309.535156 217.386719 309.257812 217.113281 C 308.984375 216.835938 308.984375 216.378906 309.257812 216.105469 L 311.179688 214.003906 C 311.546875 213.820312 312.09375 213.820312 312.367188 214.09375 Z M 308.253906 218.207031 C 308.527344 218.390625 308.527344 218.847656 308.253906 219.03125 L 306.152344 220.949219 C 305.96875 221.132812 305.601562 221.132812 305.421875 220.949219 C 305.238281 220.769531 305.238281 220.492188 305.421875 220.3125 L 307.339844 218.207031 C 307.613281 218.027344 308.070312 218.027344 308.253906 218.207031 Z M 304.140625 222.414062 C 304.324219 222.597656 304.324219 222.78125 304.140625 222.960938 L 302.039062 224.882812 C 301.945312 224.972656 301.761719 224.972656 301.671875 224.882812 C 301.582031 224.789062 301.582031 224.699219 301.671875 224.609375 L 303.59375 222.503906 C 303.773438 222.324219 303.957031 222.230469 304.140625 222.414062 Z M 299.933594 226.617188 C 299.933594 226.617188 299.933594 226.710938 299.933594 226.710938 L 298.929688 227.625 L 299.84375 226.617188 C 299.84375 226.617188 299.84375 226.617188 299.933594 226.617188 Z M 89.402344 168.933594 L 88.398438 169.757812 L 86.933594 167.929688 L 87.941406 167.105469 Z M 87.117188 175.972656 L 88.121094 175.152344 L 89.675781 176.886719 L 88.671875 177.710938 Z M 86.476562 175.242188 L 83.09375 171.3125 L 84.101562 170.488281 L 87.484375 174.417969 Z M 101.011719 160.523438 L 99.730469 158.511719 L 100.828125 157.78125 L 102.109375 159.792969 Z M 100.28125 165.828125 L 101.652344 167.746094 L 100.554688 168.476562 L 99.183594 166.558594 Z M 98.636719 165.828125 L 95.710938 161.53125 L 96.808594 160.796875 L 99.730469 165.09375 Z M 114.542969 152.664062 L 113.445312 150.558594 L 114.632812 149.921875 L 115.730469 152.023438 Z M 112.074219 158.511719 L 113.261719 157.875 L 114.359375 159.882812 L 113.171875 160.523438 Z M 111.617188 157.691406 L 109.148438 153.121094 L 110.335938 152.480469 L 112.804688 157.050781 Z M 128.710938 146.171875 L 127.890625 143.976562 L 129.078125 143.519531 L 129.898438 145.714844 Z M 125.695312 151.75 L 126.882812 151.199219 L 127.796875 153.394531 L 126.609375 153.941406 Z M 125.328125 150.835938 L 123.226562 146.082031 L 124.414062 145.53125 L 126.515625 150.285156 Z M 143.429688 141.050781 L 142.789062 138.765625 L 144.070312 138.402344 L 144.710938 140.6875 Z M 139.957031 146.261719 L 141.234375 145.898438 L 141.96875 148.09375 L 140.6875 148.457031 Z M 139.679688 145.347656 L 138.035156 140.414062 L 139.316406 140.046875 L 140.960938 144.984375 Z M 158.605469 137.304688 L 158.148438 135.019531 L 159.425781 134.746094 L 159.882812 137.03125 Z M 154.675781 142.242188 L 155.953125 141.96875 L 156.503906 144.253906 L 155.222656 144.527344 Z M 154.398438 141.328125 L 153.300781 136.300781 L 154.582031 136.023438 L 155.679688 141.050781 Z M 174.054688 135.019531 L 173.871094 132.640625 L 175.152344 132.550781 L 175.335938 134.929688 Z M 169.667969 139.5 L 170.945312 139.316406 L 171.21875 141.601562 L 169.941406 141.785156 Z M 169.484375 138.585938 L 168.84375 133.464844 L 170.125 133.28125 L 170.761719 138.402344 Z M 190.964844 134.289062 L 189.6875 134.289062 L 189.6875 131.910156 L 190.964844 131.910156 Z M 184.839844 138.308594 L 186.121094 138.308594 L 186.210938 140.6875 L 184.933594 140.6875 Z M 184.75 137.394531 L 184.566406 132.183594 L 185.847656 132.183594 L 186.03125 137.394531 Z M 206.597656 135.292969 L 205.320312 135.109375 L 205.59375 132.824219 L 206.871094 133.007812 Z M 201.203125 141.050781 L 199.925781 140.960938 L 200.109375 138.585938 L 201.386719 138.675781 Z M 201.480469 137.761719 L 200.199219 137.671875 L 200.566406 132.460938 L 201.84375 132.550781 Z M 222.046875 137.945312 L 220.769531 137.671875 L 221.316406 135.386719 L 222.597656 135.660156 Z M 216.015625 143.0625 L 214.734375 142.789062 L 215.191406 140.503906 L 216.472656 140.777344 Z M 216.65625 139.863281 L 215.375 139.589844 L 216.289062 134.472656 L 217.570312 134.746094 Z M 237.132812 142.148438 L 235.851562 141.691406 L 236.582031 139.5 L 237.863281 139.957031 Z M 229.363281 146.261719 L 230 143.976562 L 231.28125 144.34375 L 230.640625 146.628906 Z M 231.554688 143.519531 L 230.277344 143.15625 L 231.738281 138.21875 L 233.019531 138.585938 Z M 251.667969 148.09375 L 250.480469 147.542969 L 251.484375 145.441406 L 252.671875 145.988281 Z M 244.445312 149.097656 L 245.632812 149.644531 L 244.71875 151.839844 L 243.53125 151.292969 Z M 244.8125 148.273438 L 246.820312 143.519531 L 248.011719 144.070312 L 246 148.824219 Z M 265.5625 155.589844 L 264.464844 154.855469 L 265.746094 152.84375 L 266.84375 153.578125 Z M 258.15625 155.769531 L 259.253906 156.410156 L 258.066406 158.421875 L 256.96875 157.78125 Z M 258.613281 154.949219 L 261.175781 150.46875 L 262.269531 151.109375 L 259.710938 155.589844 Z M 278.359375 164.914062 L 277.355469 164.089844 L 278.816406 162.261719 L 279.824219 163.085938 Z M 270.957031 164.179688 L 271.960938 165.003906 L 270.589844 166.832031 L 269.585938 166.007812 Z M 272.601562 164.179688 L 271.597656 163.359375 L 274.703125 159.246094 L 275.710938 160.066406 Z M 287.867188 175.972656 L 276.167969 186.210938 C 275.433594 185.574219 274.703125 184.933594 273.972656 184.382812 L 281.285156 177.253906 L 280.371094 176.339844 L 272.96875 183.5625 C 272.144531 182.921875 271.230469 182.28125 270.40625 181.640625 L 288.324219 162.351562 L 288.417969 162.261719 L 287.410156 161.347656 L 269.3125 180.910156 C 268.394531 180.269531 267.574219 179.628906 266.660156 179.082031 L 277.445312 166.101562 L 277.539062 166.007812 L 276.53125 165.1875 L 265.5625 178.351562 C 264.738281 177.800781 263.917969 177.34375 263.09375 176.796875 L 270.132812 167.5625 L 270.226562 167.472656 L 269.21875 166.648438 L 262.089844 176.066406 C 261.175781 175.515625 260.261719 174.96875 259.347656 174.417969 L 275.160156 151.472656 L 274.0625 150.742188 L 258.25 173.78125 C 257.335938 173.230469 256.328125 172.773438 255.414062 172.226562 L 265.015625 156.867188 L 265.105469 156.777344 L 264.007812 156.046875 L 254.316406 171.585938 C 253.496094 171.128906 252.582031 170.671875 251.757812 170.304688 L 258.066406 159.246094 L 258.15625 159.152344 L 257.0625 158.511719 L 250.660156 169.757812 C 249.65625 169.300781 248.742188 168.84375 247.734375 168.386719 L 260.898438 142.882812 L 260.992188 142.789062 L 259.804688 142.148438 L 246.640625 167.835938 C 245.632812 167.378906 244.628906 166.921875 243.621094 166.558594 L 251.667969 149.371094 L 250.480469 148.824219 L 242.433594 166.101562 C 241.519531 165.734375 240.605469 165.371094 239.691406 165.003906 L 244.902344 152.664062 L 243.714844 152.113281 L 238.503906 164.546875 C 237.496094 164.179688 236.492188 163.816406 235.394531 163.449219 L 245.726562 136.117188 L 244.535156 135.660156 L 234.207031 163.085938 C 233.199219 162.71875 232.105469 162.351562 231.097656 161.988281 L 237.222656 143.613281 L 235.945312 143.15625 L 229.820312 161.53125 C 228.90625 161.253906 227.898438 160.980469 226.984375 160.617188 L 230.914062 147.542969 L 229.636719 147.175781 L 225.703125 160.25 C 224.609375 159.976562 223.601562 159.609375 222.503906 159.335938 L 229.910156 130.996094 L 229.910156 130.90625 L 228.628906 130.539062 L 221.226562 158.96875 C 220.128906 158.695312 219.121094 158.421875 218.027344 158.148438 L 222.230469 139.222656 L 220.949219 138.949219 L 216.746094 157.875 C 215.742188 157.691406 214.824219 157.417969 213.820312 157.234375 L 216.289062 143.796875 L 215.007812 143.519531 L 212.539062 156.867188 C 211.445312 156.683594 210.347656 156.503906 209.25 156.226562 L 213.546875 127.25 L 212.265625 127.066406 L 207.96875 155.953125 C 207.328125 155.863281 206.597656 155.769531 205.957031 155.589844 C 205.59375 155.496094 205.136719 155.496094 204.769531 155.40625 L 206.871094 136.390625 L 205.59375 136.207031 L 203.492188 155.222656 C 202.484375 155.132812 201.570312 154.949219 200.566406 154.855469 L 201.570312 141.601562 L 200.289062 141.511719 L 199.285156 154.765625 C 198.1875 154.671875 197.089844 154.582031 195.996094 154.398438 L 197.183594 125.695312 L 197.183594 125.601562 L 195.902344 125.511719 L 194.714844 154.308594 C 193.617188 154.214844 192.519531 154.125 191.421875 154.125 L 191.515625 135.476562 L 190.234375 135.476562 L 190.144531 154.125 C 189.136719 154.035156 188.132812 154.035156 187.125 154.035156 L 186.761719 141.328125 L 185.480469 141.328125 L 185.847656 154.035156 C 184.75 154.035156 183.5625 154.035156 182.464844 154.035156 L 180.726562 125.96875 L 180.726562 125.878906 L 179.449219 125.96875 L 181.183594 154.035156 C 180.085938 154.035156 178.898438 154.125 177.800781 154.125 L 176.066406 136.300781 L 176.066406 136.207031 L 174.785156 136.300781 L 176.523438 154.125 C 175.515625 154.214844 174.511719 154.214844 173.503906 154.308594 L 172.042969 142.332031 L 170.761719 142.515625 L 172.226562 154.398438 C 171.128906 154.492188 169.941406 154.582031 168.84375 154.671875 L 164.546875 127.613281 L 164.546875 127.523438 L 163.265625 127.707031 L 167.5625 154.855469 C 167.5625 154.855469 167.472656 154.855469 167.472656 154.855469 C 166.375 154.949219 165.277344 155.132812 164.179688 155.3125 L 160.890625 138.308594 L 159.609375 138.585938 L 162.902344 155.496094 C 161.894531 155.679688 160.890625 155.769531 159.882812 155.953125 L 157.417969 144.800781 L 156.136719 145.074219 L 158.605469 156.136719 C 157.507812 156.320312 156.320312 156.59375 155.222656 156.777344 L 148.550781 130.722656 L 147.269531 131.089844 L 153.941406 157.050781 C 152.84375 157.324219 151.65625 157.597656 150.558594 157.875 L 145.898438 141.96875 L 145.898438 141.875 L 144.617188 142.242188 L 149.28125 158.238281 C 148.273438 158.511719 147.269531 158.789062 146.261719 159.0625 L 142.882812 148.730469 L 141.601562 149.097656 L 144.984375 159.425781 C 143.886719 159.792969 142.789062 160.066406 141.691406 160.433594 L 132.734375 135.660156 L 132.734375 135.566406 L 131.546875 136.023438 L 140.503906 160.890625 C 139.40625 161.253906 138.308594 161.621094 137.214844 162.078125 L 131.179688 146.902344 L 129.992188 147.359375 L 136.023438 162.535156 C 135.019531 162.902344 134.105469 163.265625 133.097656 163.722656 L 128.894531 154.035156 L 127.707031 154.582031 L 131.910156 164.273438 C 131.363281 164.546875 130.8125 164.730469 130.175781 165.003906 C 129.71875 165.1875 129.167969 165.460938 128.710938 165.644531 L 117.558594 141.96875 L 117.558594 141.875 L 116.371094 142.425781 L 127.523438 166.101562 C 126.515625 166.558594 125.421875 167.105469 124.414062 167.65625 L 117.101562 153.300781 L 117.101562 153.210938 L 115.914062 153.851562 L 123.316406 168.296875 C 122.402344 168.753906 121.488281 169.300781 120.574219 169.757812 L 114.726562 160.523438 L 113.535156 161.164062 L 118.65625 170.398438 C 117.648438 170.945312 116.644531 171.585938 115.730469 172.132812 L 102.292969 149.554688 L 102.199219 149.464844 L 101.105469 150.101562 L 114.632812 172.773438 C 113.628906 173.414062 112.714844 174.054688 111.800781 174.695312 L 102.839844 160.890625 L 101.742188 161.621094 L 110.703125 175.515625 C 109.878906 176.066406 109.058594 176.707031 108.234375 177.34375 L 102.019531 168.296875 L 100.921875 169.027344 L 107.136719 178.078125 C 106.222656 178.808594 105.308594 179.449219 104.484375 180.179688 L 88.488281 158.695312 L 88.398438 158.605469 L 87.300781 159.425781 L 103.390625 181 C 102.476562 181.734375 101.652344 182.464844 100.828125 183.195312 L 90.226562 169.941406 L 90.132812 169.847656 L 89.128906 170.671875 L 99.824219 184.019531 C 99.09375 184.660156 98.359375 185.390625 97.628906 186.121094 L 90.042969 177.34375 L 89.035156 178.167969 L 96.625 187.035156 C 95.800781 187.859375 95.070312 188.589844 94.246094 189.414062 L 75.507812 169.210938 L 75.414062 169.117188 L 74.410156 170.03125 L 93.242188 190.328125 C 93.242188 190.328125 93.148438 190.417969 93.148438 190.417969 C 92.785156 190.875 92.601562 191.332031 92.601562 191.789062 C 92.601562 192.246094 92.691406 192.703125 93.148438 193.160156 C 102.199219 202.757812 112.988281 210.710938 124.871094 216.472656 C 133.648438 220.769531 142.882812 223.96875 152.480469 226.070312 C 152.480469 233.476562 152.480469 240.878906 152.480469 248.375 C 149.738281 248.925781 147.632812 251.300781 147.632812 254.226562 C 147.632812 257.519531 150.285156 260.261719 153.667969 260.261719 C 156.960938 260.261719 159.703125 257.609375 159.703125 254.226562 C 159.703125 251.394531 157.691406 248.925781 154.949219 248.375 C 154.949219 241.152344 154.949219 233.839844 154.949219 226.617188 C 157.417969 227.167969 159.882812 227.53125 162.351562 227.898438 C 170.125 229.085938 178.078125 229.542969 185.9375 229.453125 C 185.9375 236.859375 185.9375 244.171875 185.9375 251.574219 C 183.195312 252.125 181.09375 254.5 181.09375 257.425781 C 181.09375 260.351562 183.195312 262.820312 185.9375 263.277344 C 185.9375 269.128906 185.9375 274.976562 185.9375 280.828125 C 184.109375 280.1875 182.191406 279.824219 180.179688 279.824219 C 179.8125 279.824219 179.355469 279.824219 178.992188 279.824219 C 182.28125 284.667969 184.109375 290.519531 184.109375 296.644531 C 184.109375 302.769531 182.28125 308.527344 178.992188 313.464844 C 179.355469 313.464844 179.8125 313.464844 180.179688 313.464844 C 189.414062 313.464844 197 305.878906 197 296.644531 C 197 290.335938 193.527344 284.851562 188.40625 281.925781 C 188.40625 275.710938 188.40625 269.492188 188.40625 263.277344 C 191.058594 262.726562 193.160156 260.261719 193.160156 257.425781 C 193.160156 254.59375 191.148438 252.125 188.40625 251.574219 C 188.40625 244.171875 188.40625 236.765625 188.40625 229.363281 C 192.886719 229.269531 197.367188 228.902344 201.84375 228.355469 C 207.785156 227.625 213.636719 226.617188 219.398438 225.246094 C 219.398438 232.378906 219.398438 239.601562 219.398438 246.730469 C 216.65625 247.277344 214.550781 249.65625 214.550781 252.582031 C 214.550781 255.871094 217.203125 258.613281 220.585938 258.613281 C 223.96875 258.613281 226.617188 255.964844 226.617188 252.582031 C 226.617188 249.746094 224.609375 247.277344 221.867188 246.730469 C 221.867188 239.324219 221.867188 232.011719 221.867188 224.609375 C 227.988281 223.054688 234.023438 221.132812 239.964844 218.757812 C 253.039062 213.546875 265.652344 206.597656 276.257812 197.367188 C 277.902344 195.996094 279.457031 194.53125 281.011719 192.976562 C 281.378906 192.613281 281.558594 192.15625 281.558594 191.699219 C 281.558594 191.699219 281.558594 191.605469 281.558594 191.605469 C 281.558594 191.605469 281.558594 191.605469 281.558594 191.515625 C 281.558594 191.058594 281.378906 190.601562 281.011719 190.234375 C 279.824219 189.046875 278.542969 187.859375 277.265625 186.761719 L 288.78125 176.707031 Z M 130.996094 215.191406 C 119.296875 210.074219 108.507812 202.941406 99.367188 194.074219 C 98.636719 193.34375 97.902344 192.613281 97.171875 191.878906 C 105.765625 183.011719 115.820312 175.699219 126.882812 170.214844 C 138.128906 164.636719 150.195312 161.074219 162.628906 159.152344 C 163.632812 158.96875 164.636719 158.878906 165.644531 158.789062 C 165.371094 158.878906 165.09375 159.0625 164.914062 159.152344 C 164 159.609375 163.085938 160.066406 162.261719 160.617188 C 161.347656 161.164062 160.523438 161.714844 159.703125 162.261719 C 158.878906 162.808594 158.054688 163.449219 157.234375 164.089844 C 156.410156 164.730469 155.589844 165.460938 154.855469 166.191406 C 154.035156 166.921875 153.300781 167.65625 152.570312 168.476562 C 151.839844 169.300781 151.109375 170.125 150.46875 170.945312 C 144.617188 178.351562 141.050781 187.675781 141.050781 197.824219 C 141.050781 206.414062 143.613281 214.460938 147.910156 221.132812 C 142.148438 219.578125 136.480469 217.570312 130.996094 215.191406 Z M 157.324219 254.316406 C 157.324219 256.328125 155.679688 257.882812 153.757812 257.882812 C 151.75 257.882812 150.195312 256.238281 150.195312 254.316406 C 150.195312 252.398438 151.839844 250.753906 153.757812 250.753906 C 155.679688 250.753906 157.324219 252.308594 157.324219 254.316406 Z M 167.5625 224.882812 C 167.5625 224.882812 167.472656 224.882812 167.5625 224.882812 C 168.84375 222.140625 170.398438 219.578125 171.953125 216.929688 C 172.316406 217.203125 172.773438 217.476562 173.230469 217.660156 C 172.5 219.855469 171.769531 221.957031 170.855469 224.058594 C 171.769531 221.957031 172.773438 219.945312 173.960938 218.027344 C 174.328125 218.207031 174.695312 218.390625 175.152344 218.574219 C 174.875 219.855469 174.601562 221.042969 174.328125 222.324219 C 174.601562 221.132812 175.058594 219.945312 175.515625 218.757812 C 175.972656 218.941406 176.339844 219.121094 176.796875 219.214844 C 176.707031 221.316406 176.523438 223.511719 176.25 225.613281 C 173.230469 225.429688 170.398438 225.15625 167.5625 224.882812 Z M 170.03125 203.582031 C 166.101562 203.582031 162.902344 200.382812 162.902344 196.453125 C 162.902344 192.519531 166.101562 189.320312 170.03125 189.320312 C 173.960938 189.320312 177.164062 192.519531 177.164062 196.453125 C 177.164062 200.382812 173.960938 203.582031 170.03125 203.582031 Z M 178.441406 207.605469 C 178.441406 209.339844 177.070312 210.710938 175.335938 210.710938 C 173.597656 210.710938 172.226562 209.339844 172.226562 207.605469 C 172.226562 205.867188 173.597656 204.496094 175.335938 204.496094 C 177.070312 204.496094 178.441406 205.867188 178.441406 207.605469 Z M 176.25 225.613281 C 176.707031 223.601562 177.164062 221.589844 177.710938 219.578125 C 178.167969 219.761719 178.625 219.855469 179.171875 219.945312 C 179.082031 221.863281 178.992188 223.785156 178.714844 225.703125 C 177.984375 225.703125 177.070312 225.613281 176.25 225.613281 Z M 178.808594 225.703125 C 179.082031 223.785156 179.449219 221.957031 179.90625 220.128906 C 180.363281 220.21875 180.726562 220.3125 181.183594 220.3125 C 181.277344 221.589844 181.367188 222.78125 181.457031 224.058594 C 181.367188 222.871094 181.457031 221.589844 181.640625 220.402344 C 182.097656 220.492188 182.554688 220.492188 183.011719 220.492188 C 183.46875 222.230469 183.835938 224.058594 184.109375 225.796875 C 182.28125 225.796875 180.542969 225.796875 178.808594 225.703125 Z M 184.292969 225.796875 C 184.203125 224.058594 184.109375 222.324219 184.109375 220.492188 C 184.203125 220.492188 184.203125 220.492188 184.292969 220.492188 C 184.75 220.492188 185.207031 220.492188 185.664062 220.492188 C 186.121094 222.230469 186.488281 224.058594 186.761719 225.796875 C 185.9375 225.796875 185.117188 225.796875 184.292969 225.796875 Z M 190.691406 257.519531 C 190.691406 259.527344 189.046875 261.082031 187.125 261.082031 C 185.207031 261.082031 183.5625 259.4375 183.5625 257.519531 C 183.5625 255.507812 185.207031 253.953125 187.125 253.953125 C 189.046875 253.953125 190.691406 255.507812 190.691406 257.519531 Z M 186.761719 225.796875 C 186.578125 224.058594 186.394531 222.230469 186.304688 220.402344 C 186.761719 220.402344 187.21875 220.3125 187.582031 220.21875 C 188.039062 221.40625 188.40625 222.503906 188.863281 223.695312 C 188.5 222.597656 188.222656 221.40625 187.949219 220.21875 C 188.40625 220.128906 188.863281 220.035156 189.320312 219.945312 C 190.417969 221.773438 191.332031 223.695312 192.15625 225.613281 C 190.417969 225.613281 188.589844 225.703125 186.761719 225.796875 Z M 192.429688 225.523438 C 191.699219 223.601562 191.058594 221.589844 190.507812 219.671875 C 190.964844 219.488281 191.515625 219.398438 191.972656 219.214844 C 193.070312 221.132812 194.074219 223.054688 194.988281 225.066406 C 194.074219 223.054688 193.25 221.042969 192.613281 218.941406 C 193.070312 218.757812 193.433594 218.574219 193.800781 218.390625 C 194.53125 219.398438 195.261719 220.3125 195.902344 221.316406 C 195.261719 220.3125 194.621094 219.304688 194.074219 218.207031 C 194.53125 218.027344 194.898438 217.75 195.355469 217.570312 C 197.640625 219.761719 199.742188 222.140625 201.660156 224.699219 C 198.554688 225.066406 195.539062 225.339844 192.429688 225.523438 Z M 212.449219 222.960938 C 210.253906 223.417969 208.152344 223.785156 205.957031 224.058594 C 204.496094 224.242188 203.125 224.425781 201.660156 224.609375 C 199.832031 222.140625 198.003906 219.578125 196.359375 216.929688 C 196.816406 216.65625 197.183594 216.378906 197.640625 216.105469 C 199.195312 217.660156 200.746094 219.214844 202.210938 220.949219 C 200.839844 219.304688 199.46875 217.570312 198.1875 215.742188 C 198.738281 215.285156 199.285156 214.824219 199.742188 214.367188 C 201.480469 215.648438 203.214844 217.113281 204.863281 218.574219 C 203.214844 217.113281 201.753906 215.558594 200.289062 213.820312 C 200.566406 213.546875 200.929688 213.179688 201.203125 212.816406 C 202.210938 213.453125 203.308594 214.003906 204.3125 214.644531 C 203.308594 214.003906 202.394531 213.273438 201.480469 212.539062 C 201.753906 212.175781 202.121094 211.808594 202.394531 211.445312 C 205.410156 212.539062 208.242188 214.003906 210.988281 215.558594 C 208.242188 214.003906 205.683594 212.359375 203.035156 210.53125 C 203.308594 210.074219 203.582031 209.707031 203.855469 209.25 C 205.957031 210.074219 207.96875 210.894531 209.890625 211.902344 C 207.96875 210.894531 206.050781 209.796875 204.222656 208.609375 C 204.40625 208.242188 204.679688 207.785156 204.863281 207.421875 C 206.050781 207.695312 207.238281 208.0625 208.335938 208.335938 C 207.148438 207.96875 206.050781 207.605469 204.953125 207.054688 C 205.136719 206.597656 205.320312 206.234375 205.5 205.777344 C 208.703125 206.050781 211.808594 206.597656 214.917969 207.328125 C 211.902344 206.597656 208.882812 205.683594 205.867188 204.679688 C 206.050781 204.222656 206.140625 203.765625 206.324219 203.214844 C 208.519531 203.398438 210.710938 203.671875 212.90625 204.128906 C 210.710938 203.765625 208.609375 203.214844 206.507812 202.578125 C 206.597656 202.121094 206.691406 201.753906 206.78125 201.296875 C 207.96875 201.296875 209.25 201.203125 210.4375 201.203125 C 209.25 201.203125 208.0625 201.113281 206.871094 200.929688 C 206.964844 200.472656 206.964844 200.015625 207.054688 199.558594 C 210.253906 198.917969 213.363281 198.554688 216.5625 198.460938 C 213.453125 198.554688 210.253906 198.554688 207.054688 198.460938 C 207.054688 198.1875 207.054688 197.914062 207.054688 197.640625 C 207.054688 197.457031 207.054688 197.183594 207.054688 197 C 209.25 196.542969 211.445312 196.175781 213.730469 195.996094 C 211.535156 196.175781 209.25 196.269531 207.054688 196.269531 C 207.054688 195.8125 206.964844 195.445312 206.964844 194.988281 C 208.152344 194.621094 209.339844 194.257812 210.53125 193.890625 C 209.339844 194.257812 208.152344 194.441406 206.964844 194.621094 C 206.871094 194.164062 206.871094 193.707031 206.78125 193.25 C 209.617188 191.789062 212.632812 190.507812 215.742188 189.503906 C 212.722656 190.507812 209.707031 191.332031 206.597656 192.15625 C 206.507812 191.699219 206.324219 191.242188 206.234375 190.691406 C 208.242188 189.6875 210.253906 188.679688 212.359375 187.859375 C 210.253906 188.679688 208.152344 189.414062 205.957031 189.960938 C 205.777344 189.59375 205.683594 189.136719 205.5 188.773438 C 206.597656 188.039062 207.605469 187.402344 208.703125 186.667969 C 207.605469 187.308594 206.507812 187.859375 205.320312 188.40625 C 205.136719 188.039062 204.953125 187.582031 204.769531 187.21875 C 207.148438 184.933594 209.707031 182.921875 212.359375 181.09375 C 209.707031 182.921875 206.964844 184.566406 204.222656 186.210938 C 203.949219 185.753906 203.765625 185.390625 203.492188 184.933594 C 205.136719 183.378906 206.871094 181.824219 208.703125 180.453125 C 206.871094 181.824219 205.042969 183.105469 203.035156 184.292969 C 202.757812 183.925781 202.578125 183.652344 202.300781 183.289062 C 203.125 182.28125 203.949219 181.277344 204.863281 180.363281 C 204.039062 181.277344 203.035156 182.191406 202.027344 183.011719 C 201.753906 182.648438 201.480469 182.375 201.113281 182.007812 C 202.757812 179.171875 204.679688 176.429688 206.78125 173.960938 C 204.679688 176.429688 202.578125 178.808594 200.289062 181.183594 C 199.925781 180.820312 199.558594 180.542969 199.195312 180.269531 C 200.382812 178.257812 201.660156 176.339844 203.035156 174.417969 C 201.660156 176.25 200.199219 178.078125 198.644531 179.722656 C 198.371094 179.449219 198.003906 179.265625 197.640625 178.992188 C 198.1875 177.800781 198.738281 176.523438 199.285156 175.425781 C 198.738281 176.613281 198.003906 177.710938 197.273438 178.808594 C 196.910156 178.535156 196.542969 178.351562 196.175781 178.167969 C 197 174.96875 198.097656 171.769531 199.375 168.753906 C 198.097656 171.769531 196.632812 174.695312 195.078125 177.527344 C 194.621094 177.34375 194.257812 177.070312 193.800781 176.886719 C 194.347656 174.601562 195.078125 172.316406 195.902344 170.125 C 195.082031 172.316406 194.164062 174.417969 193.070312 176.523438 C 192.703125 176.339844 192.335938 176.25 191.972656 176.066406 C 192.15625 174.695312 192.335938 173.414062 192.613281 172.042969 C 192.335938 173.324219 192.0625 174.695312 191.515625 175.882812 C 191.148438 175.792969 190.691406 175.609375 190.328125 175.515625 C 190.234375 172.132812 190.417969 168.84375 190.875 165.460938 C 190.417969 168.753906 189.871094 171.953125 189.136719 175.152344 C 188.679688 175.058594 188.222656 174.96875 187.765625 174.878906 C 187.675781 172.5 187.765625 170.125 187.949219 167.746094 C 187.765625 170.125 187.402344 172.410156 187.035156 174.785156 C 186.667969 174.785156 186.304688 174.695312 185.847656 174.695312 C 185.664062 173.324219 185.480469 171.953125 185.296875 170.582031 C 185.480469 171.953125 185.480469 173.324219 185.390625 174.695312 C 185.117188 174.695312 184.839844 174.695312 184.566406 174.695312 C 184.476562 174.695312 184.292969 174.695312 184.203125 174.695312 C 183.195312 171.496094 182.375 168.203125 181.917969 164.820312 C 182.375 168.113281 182.738281 171.402344 183.011719 174.695312 C 182.554688 174.695312 182.097656 174.785156 181.640625 174.878906 C 180.910156 172.589844 180.269531 170.304688 179.8125 167.929688 C 180.269531 170.214844 180.636719 172.589844 180.820312 174.96875 C 180.453125 175.058594 180.085938 175.058594 179.722656 175.152344 C 179.171875 173.871094 178.625 172.589844 178.078125 171.3125 C 178.625 172.589844 178.992188 173.871094 179.265625 175.242188 C 178.898438 175.335938 178.535156 175.425781 178.078125 175.515625 C 176.15625 172.683594 174.511719 169.757812 173.140625 166.648438 C 174.511719 169.667969 175.792969 172.773438 176.886719 175.882812 C 176.429688 176.066406 176.066406 176.25 175.609375 176.429688 C 174.238281 174.417969 172.957031 172.410156 171.859375 170.214844 C 172.957031 172.316406 173.960938 174.511719 174.785156 176.796875 C 174.417969 176.980469 174.144531 177.164062 173.78125 177.34375 C 172.867188 176.25 171.953125 175.152344 171.128906 174.054688 C 171.953125 175.152344 172.773438 176.339844 173.414062 177.527344 C 173.046875 177.710938 172.773438 177.894531 172.410156 178.167969 C 169.757812 175.972656 167.378906 173.597656 165.1875 171.039062 C 167.378906 173.597656 169.390625 176.15625 171.402344 178.898438 C 171.039062 179.171875 170.671875 179.449219 170.304688 179.722656 C 168.476562 178.167969 166.648438 176.523438 165.003906 174.785156 C 166.648438 176.523438 168.203125 178.351562 169.667969 180.269531 C 169.390625 180.542969 169.117188 180.820312 168.84375 181 C 167.65625 180.179688 166.464844 179.449219 165.371094 178.625 C 166.464844 179.449219 167.5625 180.363281 168.476562 181.367188 C 168.203125 181.640625 167.929688 181.917969 167.65625 182.191406 C 164.546875 180.820312 161.53125 179.171875 158.695312 177.253906 C 161.4375 179.082031 164.179688 181.09375 166.832031 183.105469 C 166.558594 183.46875 166.285156 183.835938 166.007812 184.203125 C 163.816406 183.195312 161.621094 182.097656 159.519531 180.910156 C 161.621094 182.097656 163.542969 183.46875 165.550781 184.839844 C 165.371094 185.117188 165.1875 185.480469 165.003906 185.847656 C 163.632812 185.390625 162.351562 185.023438 160.980469 184.476562 C 162.261719 184.933594 163.542969 185.574219 164.730469 186.210938 C 164.546875 186.578125 164.363281 186.945312 164.179688 187.308594 C 160.796875 186.851562 157.507812 186.121094 154.214844 185.117188 C 157.417969 186.121094 160.523438 187.21875 163.632812 188.5 C 163.449219 188.957031 163.265625 189.320312 163.175781 189.777344 C 160.796875 189.414062 158.421875 189.046875 156.046875 188.40625 C 158.332031 188.957031 160.617188 189.6875 162.902344 190.507812 C 162.808594 190.875 162.71875 191.242188 162.628906 191.605469 C 161.257812 191.605469 159.792969 191.515625 158.421875 191.421875 C 159.792969 191.515625 161.164062 191.699219 162.535156 192.0625 C 162.445312 192.429688 162.351562 192.886719 162.261719 193.25 C 158.878906 193.707031 155.496094 193.984375 152.113281 193.890625 C 155.40625 193.984375 158.695312 194.164062 162.078125 194.53125 C 161.988281 194.988281 161.988281 195.445312 161.988281 195.902344 C 159.609375 196.269531 157.234375 196.453125 154.855469 196.542969 C 157.234375 196.453125 159.609375 196.542969 161.988281 196.726562 C 161.988281 196.910156 161.988281 197 161.988281 197.183594 C 161.988281 197.457031 161.988281 197.640625 161.988281 197.914062 C 160.617188 198.28125 159.335938 198.554688 157.964844 198.917969 C 159.335938 198.644531 160.617188 198.460938 161.988281 198.460938 C 161.988281 198.828125 162.078125 199.285156 162.078125 199.652344 C 158.96875 201.023438 155.863281 202.121094 152.570312 203.035156 C 155.769531 202.210938 158.96875 201.480469 162.261719 200.929688 C 162.351562 201.386719 162.445312 201.84375 162.535156 202.300781 C 160.339844 203.308594 158.148438 204.128906 155.953125 204.863281 C 158.148438 204.128906 160.433594 203.582031 162.71875 203.035156 C 162.808594 203.398438 162.902344 203.765625 163.085938 204.128906 C 161.894531 204.863281 160.707031 205.5 159.519531 206.140625 C 160.707031 205.5 161.894531 204.953125 163.175781 204.585938 C 163.265625 204.953125 163.449219 205.410156 163.632812 205.777344 C 161.074219 207.96875 158.332031 209.890625 155.496094 211.535156 C 158.332031 209.890625 161.164062 208.335938 164.089844 206.871094 C 164.273438 207.328125 164.546875 207.695312 164.730469 208.152344 C 162.902344 209.707031 161.074219 211.078125 159.152344 212.359375 C 161.074219 211.078125 163.085938 209.890625 165.09375 208.792969 C 165.277344 209.160156 165.550781 209.523438 165.734375 209.796875 C 164.820312 210.804688 163.90625 211.71875 162.992188 212.632812 C 163.90625 211.71875 164.914062 210.894531 166.007812 210.164062 C 166.285156 210.53125 166.558594 210.894531 166.742188 211.167969 C 164.914062 213.910156 162.808594 216.5625 160.617188 218.941406 C 162.808594 216.5625 165.1875 214.277344 167.5625 212.082031 C 167.839844 212.449219 168.203125 212.816406 168.570312 213.179688 C 167.289062 215.101562 165.917969 216.929688 164.457031 218.757812 C 165.917969 217.019531 167.472656 215.375 169.117188 213.730469 C 169.390625 214.003906 169.757812 214.277344 170.03125 214.550781 C 169.390625 215.742188 168.84375 216.835938 168.203125 217.933594 C 168.84375 216.835938 169.574219 215.742188 170.398438 214.734375 C 170.761719 215.007812 171.128906 215.285156 171.496094 215.558594 C 170.582031 218.484375 169.390625 221.40625 167.929688 224.152344 C 164.089844 223.695312 160.339844 223.144531 156.503906 222.324219 C 150.46875 215.648438 146.8125 206.78125 146.8125 197.089844 C 146.8125 176.25 163.816406 159.246094 184.660156 159.246094 C 205.5 159.246094 222.503906 176.25 222.503906 197.089844 C 222.140625 207.421875 218.484375 216.289062 212.449219 222.960938 Z M 224.058594 252.765625 C 224.058594 254.773438 222.414062 256.328125 220.492188 256.328125 C 218.574219 256.328125 216.929688 254.683594 216.929688 252.765625 C 216.929688 250.84375 218.574219 249.199219 220.492188 249.199219 C 222.414062 249.199219 224.058594 250.753906 224.058594 252.765625 Z M 242.527344 213.730469 C 235.394531 216.835938 228.082031 219.304688 220.492188 221.132812 C 224.882812 214.367188 227.441406 206.324219 227.441406 197.730469 C 227.441406 180.910156 217.84375 166.375 203.765625 159.246094 C 215.007812 160.890625 226.160156 163.816406 236.765625 167.835938 C 249.839844 172.867188 262.636719 179.539062 273.242188 188.679688 L 273.148438 188.773438 L 273.972656 189.777344 L 274.246094 189.59375 C 275.070312 190.328125 275.890625 191.148438 276.714844 191.878906 C 266.933594 201.296875 255.050781 208.335938 242.527344 213.730469 Z M 291.433594 174.601562 L 289.695312 176.15625 L 288.875 175.152344 L 290.609375 173.597656 Z M 282.566406 174.238281 L 283.480469 175.152344 L 281.835938 176.796875 L 280.921875 175.882812 Z M 284.121094 174.511719 L 283.207031 173.597656 L 286.953125 169.941406 L 287.867188 170.855469 Z M 187.675781 108.601562 C 181.640625 108.601562 176.707031 103.664062 176.707031 97.628906 C 176.707031 95.527344 177.253906 93.605469 178.257812 91.960938 C 180.179688 95.160156 183.652344 97.355469 187.675781 97.355469 C 191.699219 97.355469 195.171875 95.253906 197.089844 91.960938 C 198.097656 93.605469 198.644531 95.527344 198.644531 97.628906 C 198.738281 103.664062 193.800781 108.601562 187.675781 108.601562 Z M 187.675781 67.644531 C 181.640625 67.644531 176.707031 62.707031 176.707031 56.675781 C 176.707031 56.402344 176.707031 56.035156 176.707031 55.761719 C 177.164062 61.429688 181.917969 65.90625 187.675781 65.90625 C 193.433594 65.90625 198.1875 61.429688 198.644531 55.761719 C 198.644531 56.035156 198.644531 56.308594 198.644531 56.675781 C 198.738281 62.707031 193.800781 67.644531 187.675781 67.644531 Z M 187.675781 85.289062 C 181.640625 85.289062 176.707031 80.351562 176.707031 74.320312 C 176.707031 73.402344 176.796875 72.488281 177.070312 71.667969 C 178.257812 76.421875 182.554688 79.984375 187.765625 79.984375 C 192.886719 79.984375 197.273438 76.421875 198.460938 71.667969 C 198.644531 72.488281 198.828125 73.402344 198.828125 74.320312 C 198.738281 80.351562 193.800781 85.289062 187.675781 85.289062 Z M 126.972656 250.753906 C 124.507812 250.84375 124.414062 254.957031 124.414062 254.957031 C 124.414062 254.957031 124.414062 250.9375 121.855469 250.753906 C 122.3125 250.753906 123.957031 250.480469 124.414062 246.546875 C 124.871094 250.480469 126.515625 250.753906 126.972656 250.753906 Z M 140.6875 237.496094 C 138.21875 237.589844 138.128906 241.703125 138.128906 241.703125 C 138.128906 241.703125 138.128906 237.679688 135.566406 237.496094 C 136.023438 237.496094 137.671875 237.222656 138.128906 233.292969 C 138.585938 237.222656 140.230469 237.496094 140.6875 237.496094 Z M 164.730469 93.332031 C 160.796875 93.515625 160.796875 99.824219 160.796875 99.824219 C 160.796875 99.824219 160.796875 93.515625 156.867188 93.332031 C 157.597656 93.332031 160.160156 92.875 160.796875 86.84375 C 161.4375 92.875 164.089844 93.332031 164.730469 93.332031 Z M 68.832031 202.300781 C 69.289062 202.300781 71.117188 202.027344 71.574219 197.730469 C 71.941406 201.9375 73.769531 202.210938 74.320312 202.300781 C 71.574219 202.394531 71.574219 206.78125 71.574219 206.78125 C 71.574219 206.78125 71.574219 202.394531 68.832031 202.300781 Z M 230.734375 115.363281 C 230.914062 115.363281 231.738281 115.273438 231.921875 113.351562 C 232.105469 115.183594 232.925781 115.363281 233.109375 115.363281 C 231.921875 115.457031 231.921875 117.375 231.921875 117.375 C 231.921875 117.375 231.921875 115.363281 230.734375 115.363281 Z M 270.5 225.15625 C 270.957031 225.15625 272.511719 224.882812 272.875 221.226562 C 273.242188 224.882812 274.796875 225.15625 275.253906 225.15625 C 272.875 225.246094 272.875 229.085938 272.875 229.085938 C 272.875 229.085938 272.875 225.339844 270.5 225.15625 Z M 199.011719 249.015625 C 199.46875 249.015625 201.023438 248.742188 201.386719 245.085938 C 201.753906 248.742188 203.308594 249.015625 203.765625 249.015625 C 201.386719 249.109375 201.386719 252.945312 201.386719 252.945312 C 201.386719 252.945312 201.386719 249.109375 199.011719 249.015625 Z M 167.289062 248.648438 C 167.746094 248.648438 169.210938 248.375 169.574219 244.8125 C 169.941406 248.375 171.496094 248.648438 171.859375 248.648438 C 169.574219 248.742188 169.574219 252.488281 169.574219 252.488281 C 169.574219 252.488281 169.574219 248.832031 167.289062 248.648438 Z M 153.667969 113.992188 C 152.113281 114.085938 152.113281 116.554688 152.113281 116.554688 C 152.113281 116.554688 152.113281 114.085938 150.558594 113.992188 C 150.835938 113.992188 151.839844 113.808594 152.113281 111.433594 C 152.386719 113.808594 153.394531 113.992188 153.667969 113.992188 Z M 226.984375 96.808594 C 223.96875 96.988281 223.96875 101.835938 223.96875 101.835938 C 223.96875 101.835938 223.96875 96.988281 220.949219 96.808594 C 221.5 96.808594 223.511719 96.441406 223.96875 91.777344 C 224.425781 96.441406 226.4375 96.808594 226.984375 96.808594 Z M 171.402344 67.828125 C 169.847656 67.917969 169.847656 70.386719 169.847656 70.386719 C 169.847656 70.386719 169.847656 67.917969 168.296875 67.828125 C 168.570312 67.828125 169.574219 67.644531 169.847656 65.269531 C 170.125 67.644531 171.128906 67.828125 171.402344 67.828125 Z M 204.128906 95.160156 C 203.035156 95.253906 203.035156 96.898438 203.035156 96.898438 C 203.035156 96.898438 203.035156 95.160156 201.9375 95.160156 C 202.121094 95.160156 202.851562 95.070312 203.035156 93.332031 C 203.214844 94.980469 203.949219 95.160156 204.128906 95.160156 Z M 159.519531 284.667969 C 159.519531 284.667969 159.519531 279.183594 156.136719 279.09375 C 156.777344 279.09375 159.0625 278.726562 159.519531 273.425781 C 160.066406 278.636719 162.261719 279.09375 162.902344 279.09375 C 159.609375 279.273438 159.519531 284.667969 159.519531 284.667969 Z M 254.316406 242.617188 C 250.570312 242.800781 250.570312 248.832031 250.570312 248.832031 C 250.570312 248.832031 250.570312 242.800781 246.820312 242.617188 C 247.554688 242.617188 250.023438 242.160156 250.570312 236.308594 C 251.117188 242.160156 253.679688 242.617188 254.316406 242.617188 Z M 96.351562 218.117188 C 95.070312 218.207031 95.070312 220.3125 95.070312 220.3125 C 95.070312 220.3125 95.070312 218.207031 93.789062 218.117188 C 94.066406 218.117188 94.886719 217.933594 95.070312 215.921875 C 95.253906 217.933594 96.167969 218.117188 96.351562 218.117188 Z M 208.609375 279 C 207.328125 279.09375 207.328125 281.195312 207.328125 281.195312 C 207.328125 281.195312 207.328125 279.09375 206.050781 279 C 206.324219 279 207.148438 278.816406 207.328125 276.808594 C 207.511719 278.910156 208.335938 279 208.609375 279 Z M 208.609375 279 " fill-opacity="1" fill-rule="nonzero"/></g></svg>