<svg xmlns="http://www.w3.org/2000/svg" xmlns:xlink="http://www.w3.org/1999/xlink" width="50" zoomAndPan="magnify" viewBox="0 0 37.5 37.499999" height="50" preserveAspectRatio="xMidYMid meet" version="1.0"><defs><clipPath id="4b2301d7d0"><path d="M 0 0 L 37.007812 0 L 37.007812 37.007812 L 0 37.007812 Z M 0 0 " clip-rule="nonzero"/></clipPath></defs><g clip-path="url(#4b2301d7d0)"><path fill="#1d9bf0" d="M 32.8125 37.5 L 4.6875 37.5 C 2.101562 37.5 0 35.398438 0 32.8125 L 0 4.6875 C 0 2.101562 2.101562 0 4.6875 0 L 32.8125 0 C 35.398438 0 37.5 2.101562 37.5 4.6875 L 37.5 32.8125 C 37.5 35.398438 35.398438 37.5 32.8125 37.5 Z M 32.8125 37.5 " fill-opacity="1" fill-rule="nonzero"/></g><path fill="#ffffff" d="M 14.398438 28.273438 C 23.242188 28.273438 28.078125 20.945312 28.078125 14.597656 C 28.078125 14.390625 28.078125 14.183594 28.070312 13.976562 C 29.007812 13.304688 29.820312 12.449219 30.46875 11.484375 C 29.605469 11.867188 28.679688 12.121094 27.703125 12.242188 C 28.695312 11.652344 29.457031 10.707031 29.820312 9.582031 C 28.894531 10.132812 27.863281 10.527344 26.765625 10.742188 C 25.882812 9.804688 24.636719 9.226562 23.257812 9.226562 C 20.605469 9.226562 18.449219 11.382812 18.449219 14.035156 C 18.449219 14.410156 18.496094 14.773438 18.570312 15.132812 C 14.578125 14.933594 11.035156 13.011719 8.664062 10.105469 C 8.25 10.820312 8.015625 11.644531 8.015625 12.523438 C 8.015625 14.195312 8.867188 15.664062 10.152344 16.527344 C 9.367188 16.5 8.625 16.285156 7.976562 15.929688 C 7.976562 15.945312 7.976562 15.964844 7.976562 15.992188 C 7.976562 18.320312 9.636719 20.269531 11.832031 20.710938 C 11.429688 20.820312 11.007812 20.878906 10.566406 20.878906 C 10.257812 20.878906 9.957031 20.851562 9.664062 20.792969 C 10.273438 22.707031 12.054688 24.09375 14.15625 24.132812 C 12.507812 25.425781 10.433594 26.195312 8.183594 26.195312 C 7.800781 26.195312 7.414062 26.175781 7.039062 26.128906 C 9.160156 27.476562 11.691406 28.273438 14.398438 28.273438 " fill-opacity="1" fill-rule="nonzero"/></svg>